<svg width="40" height="40" viewBox="0 0 40 40" fill="none" xmlns="http://www.w3.org/2000/svg">
<path d="M20 17.1111C23.0346 17.0143 23.0275 12.6222 20 12.5273C16.9719 12.6227 16.9662 17.0148 20 17.1111Z" fill="#CBCBCB"/>
<path d="M16.875 24.4091H23.125C23.4687 24.4091 23.75 24.1277 23.75 23.7838V22.1141C23.5754 17.1481 16.4241 17.1489 16.25 22.1141C16.25 22.1141 16.25 23.7838 16.25 23.7838C16.25 24.1277 16.5313 24.4091 16.875 24.4091Z" fill="#CBCBCB"/>
<path d="M28.125 4.39797H27.5H25C23.125 4.39797 23.55 4.39797 22.1687 4.39797H17.5C16.1187 4.39797 16.4563 4.39797 14.6875 4.39797H12.5C10.2057 4.16119 8.12693 5.77856 8.12502 8.15014L8.125 31.2881C8.125 33.358 9.80625 35.0402 11.875 35.0402H28.125C30.1938 35.0402 31.875 33.358 31.875 31.2881V8.15008C31.875 6.08017 30.1938 4.39797 28.125 4.39797ZM15 22.1141C15 20.138 16.1562 18.4246 17.8313 17.6179C17 16.9675 16.4563 15.9544 16.4563 14.8226C16.6225 10.1328 23.3761 10.1288 23.5437 14.8226C23.5437 15.9544 23 16.9675 22.1687 17.6179C23.8438 18.4246 25 20.138 25 22.1141V23.7839C25 24.8157 24.1563 25.6599 23.125 25.6599H16.875C15.8437 25.6599 15 24.8157 15 23.7839V22.1141ZM26.25 31.2881H13.75C13.4063 31.2881 13.125 31.0067 13.125 30.6627C13.125 30.3188 13.4063 30.0374 13.75 30.0374H26.25C27.067 30.0519 27.0743 31.272 26.25 31.2881ZM26.25 28.7867H13.75C13.4063 28.7867 13.125 28.5052 13.125 28.1613C13.125 27.8174 13.4063 27.536 13.75 27.536H26.25C27.067 27.5505 27.0743 28.7706 26.25 28.7867Z" fill="#CBCBCB"/>
</svg>
