<svg width="40" height="40" viewBox="0 0 40 40" fill="none" xmlns="http://www.w3.org/2000/svg">
<path d="M11.9509 8C7.01664 8 3 12.0086 3 16.9429C3 21.6356 10.9447 33.3716 11.2828 33.8707C11.4277 34.088 11.6772 34.2248 11.9509 34.2248C12.2165 34.2248 12.4661 34.088 12.6109 33.8707C12.949 33.3716 20.8937 21.6356 20.8937 16.9429C20.8937 12.0086 16.8771 8 11.9509 8ZM6.79125 16.9429C6.79125 14.1014 9.10142 11.7913 11.9509 11.7913C14.8004 11.7913 17.1025 14.1014 17.1025 16.9429C17.1025 19.7843 14.7923 22.1025 11.9509 22.1025C9.10947 22.1025 6.79125 19.7843 6.79125 16.9429Z" fill="#C68CFF"/>
<path d="M30.6938 5.00063C27.5563 5.00063 25 7.55687 25 10.7006C25 13.2494 28.5712 18.8763 29.8106 20.76H29.4462C29.1012 20.76 28.8212 21.0394 28.8212 21.385C28.8212 21.7306 29.1012 22.01 29.4462 22.01H30.6962C31.0412 22.01 31.3212 21.7306 31.3212 21.385C31.3212 21.3225 31.3025 21.2656 31.2856 21.2087C31.2862 21.2075 31.2863 21.2075 31.2875 21.2062C32.075 20.0375 36.3937 13.5 36.3937 10.7C36.3937 7.55625 33.8375 5 30.6938 5V5.00063ZM30.6938 14.0319C28.8563 14.0319 27.3625 12.5381 27.3625 10.7006C27.3625 8.86313 28.8563 7.36312 30.6938 7.36312C32.5313 7.36312 34.0312 8.86313 34.0312 10.7006C34.0312 12.5381 32.5375 14.0319 30.6938 14.0319Z" fill="#C68CFF"/>
<path d="M27.7299 21H26.0559C25.8143 21 25.6245 21.1898 25.6245 21.4314C25.6245 21.6687 25.8143 21.8629 26.0559 21.8629H27.7299C27.9672 21.8629 28.1613 21.6687 28.1613 21.4314C28.1613 21.1898 27.9672 21 27.7299 21Z" fill="#C68CFF"/>
<path d="M23.6745 33.8999C23.4372 33.8999 23.243 34.094 23.243 34.3313C23.243 34.5686 23.4372 34.7628 23.6745 34.7628H25.3484C25.59 34.7628 25.7799 34.5686 25.7799 34.3313C25.7799 34.094 25.59 33.8999 25.3484 33.8999H23.6745Z" fill="#C68CFF"/>
<path d="M20.8788 21.6127C20.3567 22.0268 19.9943 22.605 19.8519 23.2521C19.8002 23.4851 19.9469 23.7137 20.1798 23.7655C20.21 23.7698 20.2402 23.7741 20.2704 23.7741C20.4689 23.7741 20.6501 23.6361 20.6932 23.4376C20.7925 22.9846 21.047 22.5791 21.4137 22.29C21.5992 22.1433 21.6338 21.8715 21.4871 21.686C21.3361 21.5005 21.0686 21.466 20.8788 21.6127Z" fill="#C68CFF"/>
<path d="M26.5952 34.3313C26.5952 34.5686 26.7894 34.7628 27.0266 34.7628H28.7006C28.9379 34.7628 29.132 34.5686 29.132 34.3313C29.132 34.094 28.9379 33.8999 28.7006 33.8999H27.0266C26.7894 33.8999 26.5952 34.094 26.5952 34.3313Z" fill="#C68CFF"/>
<path d="M20.3223 33.8999C20.085 33.8999 19.8909 34.094 19.8909 34.3313C19.8909 34.5686 20.085 34.7628 20.3223 34.7628H22.0006C22.2379 34.7628 22.432 34.5686 22.432 34.3313C22.432 34.094 22.2379 33.8999 22.0006 33.8999H20.3223Z" fill="#C68CFF"/>
<path d="M28.3383 25.8838H26.6643C26.4271 25.8838 26.2329 26.0736 26.2329 26.3152C26.2329 26.5525 26.4271 26.7467 26.6643 26.7467H28.3383C28.5756 26.7467 28.7697 26.5525 28.7697 26.3152C28.7697 26.0736 28.5756 25.8838 28.3383 25.8838Z" fill="#C68CFF"/>
<path d="M24.9903 25.8838H23.312C23.0748 25.8838 22.8806 26.0736 22.8806 26.3152C22.8806 26.5525 23.0748 26.7467 23.312 26.7467H24.9903C25.2276 26.7467 25.4218 26.5525 25.4218 26.3152C25.4218 26.0736 25.2276 25.8838 24.9903 25.8838Z" fill="#C68CFF"/>
<path d="M24.3777 21H22.7038C22.4665 21 22.2723 21.1898 22.2723 21.4314C22.2723 21.6687 22.4665 21.8629 22.7038 21.8629H24.3777C24.6193 21.8629 24.8092 21.6687 24.8092 21.4314C24.8092 21.1898 24.6193 21 24.3777 21Z" fill="#C68CFF"/>
<path d="M21.8408 25.7111C21.418 25.5212 21.0686 25.1933 20.8615 24.7792C20.7536 24.5634 20.4948 24.4815 20.2834 24.5893C20.0676 24.6972 19.9857 24.956 20.0892 25.1674C20.3912 25.7585 20.8874 26.2331 21.4914 26.5006C21.5475 26.5265 21.6079 26.5351 21.6639 26.5351C21.8322 26.5351 21.9875 26.4402 22.0609 26.2805C22.1558 26.0648 22.0609 25.806 21.8408 25.7111Z" fill="#C68CFF"/>
<path d="M33.235 27.5579C33.0883 27.3723 32.8165 27.3421 32.631 27.4888C32.4454 27.6398 32.4109 27.9073 32.5619 28.0971C32.8769 28.4898 33.0969 28.9384 33.2263 29.4216C33.2738 29.6158 33.4507 29.7452 33.6405 29.7452C33.6793 29.7452 33.7139 29.7409 33.7484 29.7323C33.9813 29.6719 34.1194 29.4389 34.059 29.2059C33.9037 28.6019 33.6276 28.0497 33.235 27.5579Z" fill="#C68CFF"/>
<path d="M31.6947 33.3302C31.2719 33.6063 30.806 33.7832 30.3098 33.8565C30.0726 33.8953 29.9129 34.1154 29.9474 34.3483C29.982 34.5641 30.1632 34.7151 30.3746 34.7151C30.3961 34.7151 30.4177 34.7151 30.4393 34.7107C31.0562 34.6158 31.6387 34.3958 32.1607 34.0593C32.3635 33.9298 32.4195 33.6624 32.2901 33.4596C32.1607 33.2611 31.8975 33.205 31.6947 33.3302Z" fill="#C68CFF"/>
<path d="M33.2911 30.9056C33.2092 31.4017 33.028 31.8677 32.7519 32.2862C32.6181 32.4846 32.6742 32.7521 32.8727 32.8859C32.946 32.9333 33.028 32.9549 33.1099 32.9549C33.2523 32.9549 33.3904 32.8859 33.4723 32.7608C33.8175 32.2387 34.0418 31.6606 34.1411 31.048C34.1799 30.8107 34.0203 30.5907 33.7873 30.5518C33.55 30.5087 33.33 30.6726 33.2911 30.9056Z" fill="#C68CFF"/>
<path d="M16.5386 34.3313C16.5386 34.5686 16.7327 34.7628 16.97 34.7628H18.6483C18.8856 34.7628 19.0797 34.5686 19.0797 34.3313C19.0797 34.094 18.8856 33.8999 18.6483 33.8999H16.97C16.7327 33.8999 16.5386 34.094 16.5386 34.3313Z" fill="#C68CFF"/>
<path d="M31.8155 26.3842C31.2633 26.0952 30.6679 25.9312 30.0423 25.8924C29.8093 25.8838 29.5979 26.0563 29.585 26.2936C29.5677 26.5352 29.7489 26.738 29.9862 26.751C30.491 26.7855 30.9699 26.9192 31.4186 27.1522C31.479 27.1824 31.548 27.1996 31.617 27.1996C31.7724 27.1996 31.9234 27.1134 32.001 26.9667C32.1089 26.7553 32.0269 26.4964 31.8155 26.3842Z" fill="#C68CFF"/>
<path d="M14.4112 33.8994C14.173 33.8994 13.9797 34.0923 13.9797 34.3308C13.9797 34.5694 14.173 34.7623 14.4112 34.7623H15.274C15.5122 34.7623 15.7055 34.5694 15.7055 34.3308C15.7055 34.0923 15.5122 33.8994 15.274 33.8994H14.4112Z" fill="#C68CFF"/>
</svg>
