<svg width="254" height="105" viewBox="0 0 254 105" fill="none" xmlns="http://www.w3.org/2000/svg">
<g clip-path="url(#clip0_28_498)">
<path d="M88.6277 3.21906C89.4882 1.26648 91.54 -0.454484 93.7905 0.108168C97.1992 0.770052 100.542 1.56431 103.917 2.3255C106.135 2.82193 107.591 4.90688 107.955 7.05805C108.319 9.20923 108.22 11.3935 108.054 13.5446C115.898 11.5258 123.907 10.202 131.883 8.94441C135.986 8.3156 140.123 7.78609 144.26 7.35589C145.187 5.03926 147.04 2.75571 149.687 2.45787C151.872 2.25928 153.493 4.44353 153.361 6.4954C161.271 7.85225 168.949 10.202 176.726 12.1215C177.884 10.4337 179.737 9.10993 181.822 9.07678C183.808 9.14301 185.033 11.261 184.801 13.0812C184.702 14.6367 183.775 15.9274 183.113 17.2843C175.336 15.4641 167.459 13.7763 159.517 12.5187C157.498 12.1877 155.446 11.6251 153.361 11.8898C142.01 12.4524 130.658 13.1805 119.307 13.8756C115.468 14.2396 111.595 14.3058 107.756 14.8022C107.061 18.6081 106.731 22.5133 106.102 26.3523C105.407 31.8791 104.447 37.3728 103.917 42.8996C103.917 50.9748 103.818 59.0499 103.851 67.1249C102.858 67.0919 101.899 67.0919 100.906 67.0919C100.906 68.0847 100.906 69.0444 100.939 70.0373C104.149 70.0373 107.326 70.0704 110.536 70.0704C110.569 69.243 110.603 68.3826 110.603 67.5552C124.668 67.7206 138.7 67.5221 152.732 67.6875C153.262 62.5909 154.387 57.4944 156.604 52.828C157.001 51.9675 157.63 51.1732 157.663 50.2135C157.928 46.1428 157.796 42.0391 156.968 38.0346C158.259 40.616 159.616 43.2967 159.55 46.2421C159.55 47.8969 159.186 49.5516 158.458 51.0409C160.807 50.743 163.19 51.107 165.54 51.1402C171.166 51.5042 176.792 51.0739 182.418 51.1071C190.03 51.0078 197.675 51.2395 205.287 51.6035C211.177 52.0337 217.134 52.2323 222.959 53.3244C221.669 51.3718 220.444 49.2537 218.723 47.6652C217.796 46.8047 216.605 46.3745 215.414 46.0435C204.658 43.1643 193.571 41.675 182.584 40.0534C186.621 39.7555 190.659 39.8548 194.663 40.0203C191.486 38.9281 188.144 38.0015 184.768 38.0346C178.48 38.0015 172.192 38.0346 165.904 38.0346C164.646 38.0015 163.289 38.0677 162.164 37.4058C161.204 36.8432 160.377 36.082 159.814 35.1553C157.961 31.9451 156.439 28.5695 154.685 25.3262C153.891 23.6384 152.732 22.0167 152.567 20.0972C152.434 19.0713 153.163 17.913 154.288 17.8799C156.406 17.7806 158.524 18.2108 160.609 18.3432C165.341 18.939 170.107 19.3361 174.806 20.1304C178.877 21.057 182.815 22.3477 186.754 23.6715C188.11 23.9693 188.673 25.3593 189.401 26.3522C192.28 30.9855 195.127 35.6518 198.171 40.1527C204.558 40.8146 210.88 41.8074 217.168 43.0981C219.319 43.4952 221.602 44.2564 222.761 46.2421C224.349 48.3602 224.415 51.074 224.945 53.5561C229.115 53.9532 233.252 54.3835 237.388 54.8137C237.422 56.5677 237.488 58.3549 237.488 60.1088C237.024 63.5176 237.024 66.9926 237.388 70.4013C237.488 73.2805 237.422 76.1598 237.388 79.0721C238.183 79.1051 238.977 79.1714 239.771 79.2375C239.771 81.6535 239.904 84.1025 239.738 86.5184C239.639 87.5774 238.58 88.2062 237.62 88.2724C233.55 88.8019 229.413 88.6365 225.309 88.6696C224.548 92.4755 222.794 96.1159 220.047 98.8627C218.491 100.451 216.638 101.775 214.52 102.47C227.592 102.867 240.698 102.933 253.77 103.728C243.676 104.555 233.549 104.687 223.422 104.853C211.177 105.018 198.899 104.985 186.654 104.985C150.912 104.985 115.17 105.018 79.4274 104.985C53.0508 104.787 26.4758 105.349 0 103.628C13.4365 102.9 26.8729 102.867 40.3094 102.371C35.3121 100.915 31.6386 96.4137 30.0831 91.5819C24.9203 91.6149 19.7244 91.5488 14.5617 91.6149C14.5617 84.4003 14.5286 77.1525 14.5947 69.9379C23.2987 69.9709 32.0357 70.004 40.7727 69.9709C40.7727 69.0112 40.7727 68.0184 40.7396 67.0586C36.8675 67.0586 32.9623 66.9593 29.0902 67.0255C29.0902 64.9406 29.0902 62.8887 29.0902 60.8037C48.7154 60.8037 68.3737 60.8699 87.9988 60.8368C88.0319 43.2635 87.9988 25.6571 87.9988 8.08386C88.032 6.4954 87.8334 4.74143 88.6277 3.21906ZM94.353 4.0464C94.353 11.9891 94.3861 19.965 94.32 27.9077C96.8683 28.0732 99.4496 28.1394 101.998 28.4041C101.899 20.7262 101.866 13.0151 101.965 5.33709C99.4166 4.93996 96.9013 4.47667 94.353 4.0464ZM94.7833 46.4077C94.4855 47.0695 94.3862 47.7646 94.4193 48.4926C94.4193 52.133 94.4193 55.7735 94.4193 59.4139C94.4523 60.0427 94.32 60.7376 94.8164 61.2341C94.9157 56.303 94.9157 51.3718 94.7833 46.4077ZM159.318 51.074C158.755 51.8021 158.16 52.5301 157.564 53.2252C164.315 53.3245 171.1 53.1259 177.851 53.4238C181.525 53.3575 185.165 53.7878 188.839 53.6224C182.881 52.9936 176.924 52.4641 170.967 52.0339C167.095 51.5374 163.157 51.6035 159.318 51.074ZM204.261 56.303C204.459 62.7234 204.426 69.1437 204.294 75.5972C214.52 76.0274 224.779 76.1267 235.006 76.5238C235.072 70.4344 235.072 64.378 235.006 58.2886C224.746 57.6598 214.487 56.9318 204.261 56.303ZM198.204 59.2815C196.55 60.0758 196.053 62.0283 195.987 63.7162C195.888 65.6026 196.583 67.82 198.337 68.7797C199.693 69.1437 201.017 68.1178 201.547 66.9264C202.407 65.0731 202.275 62.8227 201.514 60.9694C200.984 59.7117 199.528 58.6858 198.204 59.2815ZM95.3128 61.5981C95.3128 62.26 95.3128 62.8888 95.3128 63.5507C96.6697 63.8155 98.0597 63.9809 99.4496 63.9148C99.913 63.8485 100.542 63.9148 100.74 63.3852C101.038 62.8227 100.674 62.1939 100.575 61.6312C98.8208 61.4988 97.0668 61.4988 95.3128 61.5981ZM31.3407 62.1607C30.8112 62.7233 31.5392 63.3852 31.7709 63.9478C32.2011 63.9478 32.6314 63.9148 33.0616 63.8816C33.194 63.2528 33.3264 62.5909 33.4918 61.9621C32.7969 61.7967 31.8702 61.4327 31.3407 62.1607ZM35.3452 61.8629C35.3452 62.5248 35.3121 63.2198 35.3121 63.8817C35.9078 63.8817 36.4704 63.8817 37.0661 63.8817C37.1985 63.2529 37.5295 62.4917 37.033 61.9291C36.5365 61.4988 35.8747 61.7305 35.3452 61.8629ZM39.0849 62.0946C38.9194 62.7234 39.2503 63.3522 39.4158 63.9478C40.3094 63.8817 41.1037 63.6831 41.4015 62.7564C41.2691 62.5248 41.0374 62.0946 40.9051 61.8629C40.3094 61.9291 39.5482 61.6312 39.0849 62.0946ZM47.8219 66.9926C47.8549 68.0185 47.888 69.0114 47.8549 70.0373C54.3746 70.0704 60.8611 70.0704 67.3808 70.0373C67.3477 69.0444 67.3478 68.0517 67.3478 67.0588C60.8612 66.9926 54.3415 67.158 47.8219 66.9926ZM74.4962 67.1249C74.4962 68.1178 74.4962 69.1107 74.4962 70.0704C80.9497 70.0704 87.4032 70.0704 93.8567 70.0704C93.8236 69.0444 93.8236 68.0185 93.8236 66.9926C87.4031 67.1911 80.9497 66.9926 74.4962 67.1249ZM167.459 69.3092C170.603 68.1509 174.045 67.4559 177.388 68.0847C182.782 68.9452 187.68 72.718 189.732 77.7814C189.467 75.9282 188.408 74.3065 187.316 72.8172C184.702 69.5077 180.796 67.0587 176.494 66.9263C173.317 66.7278 170.14 67.6214 167.459 69.3092ZM128.606 69.3423C128.639 69.938 128.672 70.5667 128.705 71.1625C131.552 71.2948 134.398 71.1955 137.244 71.2286C137.211 70.5337 137.575 69.243 136.483 69.243C133.868 69.243 131.221 69.1106 128.606 69.3423ZM37.9265 72.5855C39.1511 72.3208 40.3425 71.8906 41.5669 71.7251C44.5785 71.1955 47.7887 71.8574 50.4032 73.4129C53.0839 75.0345 55.1027 77.5828 56.3603 80.4621C55.4667 76.1266 51.9587 72.4862 47.7556 71.1955C44.4793 70.2028 40.872 70.9639 37.9265 72.5855ZM172.688 73.5122C168.684 74.4389 165.44 77.7484 164.348 81.6535C162.793 86.4192 164.646 92.0784 168.717 94.9907C171.364 96.9764 175.005 97.539 178.116 96.3807C180.697 95.4541 182.782 93.4683 184.139 91.1186C185.959 87.7761 186.191 83.5399 184.635 80.065C183.709 77.8807 182.021 76.0605 180.068 74.7368C177.884 73.4129 175.203 72.9827 172.688 73.5122ZM41.567 76.7224C37.1654 77.8477 34.1538 82.3816 34.3854 86.8825C34.2861 91.2179 37.2316 95.6526 41.567 96.6785C44.5786 97.4728 47.7888 96.116 49.8076 93.8324C53.9113 89.5632 53.448 81.6866 48.5831 78.1786C46.6305 76.5901 43.9498 76.1267 41.567 76.7224ZM69.2342 78.7742C69.2342 79.6678 69.2673 80.5614 69.2673 81.4218C97.4971 81.3888 125.727 81.4218 153.957 81.4218C153.957 80.5283 154.023 79.6678 154.023 78.7742C125.793 78.7412 97.4971 78.8074 69.2342 78.7742ZM218.26 79.4031C218.392 81.2233 218.293 83.0434 218.326 84.8636C222.363 84.8636 226.368 84.9629 230.405 84.996C230.405 83.2751 230.439 81.5542 230.405 79.8333C226.401 79.6347 222.33 79.5686 218.26 79.4031ZM103.818 90.2581C103.851 91.7143 103.818 93.1705 103.851 94.5936C100.509 94.5936 97.133 94.395 93.7573 94.5936C92.6321 95.6526 92.0033 97.175 90.9112 98.2671C89.1903 100.087 87.1053 101.775 84.5901 102.305C89.8522 102.47 95.1142 102.338 100.376 102.371C120.663 102.404 140.95 102.404 161.237 102.371C163.885 102.338 166.533 102.437 169.18 102.205C167.691 101.908 166.367 101.08 165.176 100.154C162.098 97.6383 159.781 94.1303 158.855 90.2582C140.52 90.2912 122.186 90.2912 103.818 90.2581ZM52.8854 102.371C59.4051 102.371 65.9247 102.536 72.4113 102.271C67.8773 100.716 64.4355 96.844 62.7807 92.4423C60.7619 96.7447 57.651 101.014 52.8854 102.371ZM185.198 102.338C190.394 102.338 195.59 102.47 200.786 102.305C197.774 101.047 195.126 98.9621 193.372 96.2152C191.387 99.0282 188.541 101.345 185.198 102.338Z" fill="#8F25F8"/>
<path d="M132.511 19.4024C134.993 18.8066 137.608 19.1045 140.156 18.939C141.679 18.939 143.399 18.5419 144.756 19.4354C146.212 20.329 146.908 21.9507 147.768 23.3406C149.754 26.981 151.772 30.6215 153.692 34.2949C154.42 35.6187 154.751 37.2735 154.122 38.7297C153.427 40.0866 151.905 40.9139 150.382 40.947C147.867 41.0463 145.352 41.0794 142.837 41.1124C143.962 42.0722 144.955 43.1974 146.179 44.0579C147.735 44.5874 149.423 44.5212 150.978 45.0177C150.945 45.481 150.912 45.9112 150.879 46.3746C149.919 46.3746 148.893 46.4077 148.033 45.9112C147.007 45.3155 145.65 45.7126 144.69 44.9515C143.168 43.8263 142.009 42.337 140.52 41.1787C138.534 41.3773 136.516 41.245 134.497 41.3111C133.206 41.3111 131.816 41.5097 130.724 40.6823C129.599 39.9542 129.202 38.5642 129.235 37.2736C129.268 32.9712 129.202 28.6359 129.334 24.3335C129.367 22.2816 130.459 20.0312 132.511 19.4024ZM139.296 26.5508C138.17 26.7494 137.211 27.7753 137.244 28.9336C137.178 31.7136 137.244 34.4935 137.211 37.2404C137.244 38.2002 137.145 39.3585 138.005 39.9873C139.296 40.7815 140.95 40.8808 142.373 40.5499C143.201 40.0865 143.962 39.2592 143.896 38.2332C143.995 35.5856 143.962 32.9381 143.995 30.2905C144.028 29.0991 143.83 27.7091 142.771 26.9479C141.745 26.3192 140.454 26.3523 139.296 26.5508Z" fill="#8F25F8"/>
<path d="M116.99 20.329C118.611 20.3952 120.266 20.0312 121.822 20.4614C123.609 20.9909 124.238 23.0097 124.304 24.6975C124.436 28.7682 124.403 32.8388 124.337 36.9425C124.337 38.498 123.708 40.1197 122.384 41.0463C121.59 41.642 120.531 41.642 119.604 41.6751C116.824 41.7082 114.077 41.7744 111.297 41.7082C109.51 41.8075 108.054 39.9873 108.385 38.2663C108.716 34.8244 109.411 31.4157 109.874 28.0069C110.238 25.8889 110.272 23.5061 111.794 21.8513C113.085 20.3621 115.203 20.3952 116.99 20.329Z" fill="#8F25F8"/>
<path d="M127.547 47.0364C129.731 46.871 131.949 46.9371 134.133 46.9371C135.06 46.9041 134.696 48.1285 134.729 48.7243C132.28 48.7905 129.831 48.8236 127.382 48.6581C127.415 48.0955 127.481 47.5659 127.547 47.0364Z" fill="#8F25F8"/>
<path d="M208 60.0096C209.423 59.8772 210.846 60.0427 212.269 60.1089C215.612 60.2413 218.922 60.3406 222.264 60.5723C222.33 61.3997 222.363 62.227 222.363 63.0544C217.565 62.922 212.766 62.7565 208 62.3594C208 61.5319 208 60.7708 208 60.0096Z" fill="#8F25F8"/>
<path d="M223.82 60.6383C225.706 60.5721 227.592 60.8369 229.512 60.8699C230.505 60.9362 231.564 60.8699 232.524 61.2009C232.656 61.9621 232.623 62.7233 232.623 63.4845C229.677 63.4514 226.765 63.3852 223.853 63.0873C223.786 62.2599 223.786 61.4326 223.82 60.6383Z" fill="#8F25F8"/>
<path d="M208.066 64.4112C210.118 64.1465 212.203 64.4774 214.255 64.5436C216.936 64.7422 219.617 64.676 222.264 64.9738C222.33 65.7681 222.396 66.5623 222.396 67.3566C217.598 67.1911 212.832 67.0588 208.066 66.7278C208 65.9336 208 65.1724 208.066 64.4112Z" fill="#8F25F8"/>
<path d="M223.82 64.9739C226.732 65.007 229.644 65.0732 232.524 65.3379C232.557 66.1322 232.59 66.9265 232.59 67.7208C229.677 67.6215 226.732 67.6215 223.82 67.3236C223.753 66.5625 223.786 65.7681 223.82 64.9739Z" fill="#8F25F8"/>
<path d="M208.067 68.8458C208.795 68.7134 209.523 68.6141 210.251 68.7134C214.255 68.9782 218.293 68.9782 222.297 69.3422C222.397 70.1365 222.43 70.9639 222.397 71.7912C217.598 71.725 212.799 71.5926 208.033 71.2617C208 70.4344 208 69.6401 208.067 68.8458Z" fill="#8F25F8"/>
<path d="M223.886 69.3091C226.765 69.3422 229.644 69.3422 232.523 69.7062C232.557 70.5335 232.523 71.3279 232.523 72.1552C229.611 72.0228 226.732 72.0228 223.82 71.7912C223.82 70.9638 223.82 70.1364 223.886 69.3091Z" fill="#8F25F8"/>
<path d="M173.383 74.5381C177.652 73.7107 182.054 76.4907 183.709 80.429C185.397 84.2349 184.867 89.0005 182.186 92.2438C180.73 93.9647 178.711 95.2554 176.461 95.7849C173.681 96.3144 170.67 95.454 168.518 93.5676C164.878 90.4567 163.786 84.9299 165.772 80.5945C167.161 77.4835 170.008 75.0345 173.383 74.5381ZM172.986 77.5166C170.504 78.2447 168.551 80.3627 167.856 82.8117C166.533 86.7831 168.717 91.7804 172.92 92.8394C176.825 93.8654 180.796 90.6883 181.524 86.8824C182.153 84.1356 181.326 81.0908 179.307 79.1383C177.686 77.5828 175.203 76.8216 172.986 77.5166Z" fill="#8F25F8"/>
<path d="M42.3282 77.4837C47.3255 76.6232 51.8264 81.3888 51.7601 86.2207C51.9918 90.2582 49.4104 94.4613 45.4721 95.6526C42.5598 96.5131 39.2504 95.3879 37.397 93.005C34.2861 89.3315 34.4516 83.3083 37.8604 79.8995C39.0187 78.6751 40.5741 77.6822 42.3282 77.4837ZM41.6331 80.1643C39.5482 81.0248 37.8604 82.9443 37.4963 85.1947C36.9337 88.0739 38.1251 91.4496 40.8058 92.8395C42.7584 93.9978 45.3067 93.4683 46.9614 92.0121C49.3774 89.9272 50.0723 86.1875 48.6823 83.3413C47.5902 80.76 44.38 78.9067 41.6331 80.1643Z" fill="#8F25F8"/>
<path d="M173.019 83.1097C174.376 82.4809 175.898 83.8378 175.733 85.2608C175.931 86.6177 174.343 88.0077 173.085 87.3458C171.497 86.5184 171.298 83.8378 173.019 83.1097Z" fill="#8F25F8"/>
<path d="M41.9641 84.7646C43.5858 84.0365 44.711 86.1877 44.0491 87.5114C43.8174 88.8021 41.8318 88.9014 41.3353 87.7762C40.872 86.7834 41.0706 85.4265 41.9641 84.7646Z" fill="#8F25F8"/>
<path d="M95.3128 61.5983C97.0668 61.532 98.8208 61.532 100.575 61.5983C100.674 62.1608 101.038 62.7896 100.74 63.3523C100.542 63.8818 99.913 63.8156 99.4496 63.8818C98.0597 63.9811 96.6697 63.7825 95.3128 63.5177C95.3128 62.8889 95.3128 62.2271 95.3128 61.5983Z" fill="#C79DF1"/>
<path d="M31.3407 62.1608C31.8702 61.4659 32.7969 61.7968 33.4919 61.9954C33.3264 62.6242 33.1609 63.253 33.0617 63.9149C32.6315 63.9479 32.2012 63.9479 31.771 63.981C31.5393 63.3853 30.8112 62.7235 31.3407 62.1608Z" fill="#C79DF1"/>
<path d="M35.3452 61.8628C35.9078 61.7305 36.5366 61.4988 36.9999 61.9291C37.4963 62.4917 37.1654 63.2528 37.033 63.8816C36.4373 63.8816 35.8747 63.8816 35.279 63.8816C35.3121 63.2198 35.3452 62.5578 35.3452 61.8628Z" fill="#C79DF1"/>
<path d="M39.0849 62.0946C39.5482 61.6313 40.3094 61.9292 40.905 61.896C41.0374 62.1277 41.2691 62.5579 41.4015 62.7896C41.1036 63.7162 40.2762 63.9148 39.4158 63.981C39.2504 63.3522 38.9194 62.7565 39.0849 62.0946Z" fill="#C79DF1"/>
<path d="M128.606 69.3423C131.221 69.1106 133.835 69.243 136.483 69.243C137.542 69.243 137.211 70.5337 137.244 71.2286C134.398 71.1956 131.552 71.3279 128.705 71.1625C128.672 70.5668 128.639 69.9711 128.606 69.3423Z" fill="#C79DF1"/>
</g>
<defs>
<clipPath id="clip0_28_498">
<rect width="253.77" height="105" fill="white"/>
</clipPath>
</defs>
</svg>
