<svg width="21" height="22" viewBox="0 0 21 22" fill="none" xmlns="http://www.w3.org/2000/svg">
<path d="M10.25 17.0001C10.252 15.5121 10.8061 14.0778 11.8049 12.9749C12.8037 11.872 14.1763 11.179 15.6567 11.0301C15.2785 10.5516 14.7966 10.1653 14.2473 9.90027C13.698 9.63523 13.0956 9.49839 12.4858 9.50005C12.3693 9.50005 12.2545 9.52716 12.1503 9.57923C12.0462 9.6313 11.9556 9.7069 11.8857 9.80005C10.6497 11.4328 6.8525 11.4328 5.6165 9.80005C5.5464 9.70716 5.45576 9.63175 5.35167 9.5797C5.24759 9.52766 5.13287 9.5004 5.0165 9.50005C4.00409 9.49495 3.02683 9.87099 2.27896 10.5534C1.5311 11.2358 1.06739 12.1747 0.98 13.1833L0.5 18.5001C0.5 19.2957 0.816071 20.0588 1.37868 20.6214C1.94129 21.184 2.70435 21.5001 3.5 21.5001H12.2945C11.6528 20.939 11.1384 20.2472 10.7858 19.4711C10.4331 18.695 10.2505 17.8525 10.25 17.0001Z" fill="#E50000"/>
<path d="M8.75 0.5C2.75 0.5 2.75 9.5 8.75 9.5C14.75 9.5 14.75 0.5 8.75 0.5Z" fill="#E50000"/>
<path d="M16.25 12.5C15.36 12.5 14.49 12.7639 13.7499 13.2584C13.0099 13.7529 12.4331 14.4557 12.0925 15.2779C11.7519 16.1002 11.6628 17.005 11.8365 17.8779C12.0101 18.7508 12.4387 19.5526 13.068 20.182C13.6974 20.8113 14.4992 21.2399 15.3721 21.4135C16.245 21.5872 17.1498 21.4981 17.9721 21.1575C18.7943 20.8169 19.4971 20.2401 19.9916 19.5001C20.4861 18.76 20.75 17.89 20.75 17C20.7486 15.807 20.2741 14.6632 19.4304 13.8196C18.5868 12.9759 17.4431 12.5014 16.25 12.5ZM17.75 17.75H14.75C14.5511 17.75 14.3603 17.671 14.2197 17.5303C14.079 17.3897 14 17.1989 14 17C14 16.8011 14.079 16.6103 14.2197 16.4697C14.3603 16.329 14.5511 16.25 14.75 16.25H17.75C17.9489 16.25 18.1397 16.329 18.2803 16.4697C18.421 16.6103 18.5 16.8011 18.5 17C18.5 17.1989 18.421 17.3897 18.2803 17.5303C18.1397 17.671 17.9489 17.75 17.75 17.75Z" fill="#E50000"/>
</svg>
