<svg width="100" height="100" viewBox="0 0 100 100" fill="none" xmlns="http://www.w3.org/2000/svg">
<path fill-rule="evenodd" clip-rule="evenodd" d="M25.9848 31.5754H23.3026C22.8967 31.5754 22.5237 31.3485 22.3372 30.988C22.1507 30.6269 22.1812 30.1924 22.4168 29.8604L30.5119 18.4584C30.8221 18.0214 31.4052 17.8728 31.8863 18.1177C32.3662 18.3589 32.5974 18.9146 32.4296 19.4249L30.3447 25.7995L33.9531 25.0784C34.405 24.9839 34.8588 25.1897 35.0956 25.5801C35.3318 25.9717 35.2989 26.4696 35.0117 26.8258L24.8939 39.3666C24.6807 39.6302 24.3667 39.7706 24.0472 39.7706C23.8545 39.7706 23.6594 39.7197 23.4841 39.6121C23.0185 39.3293 22.8345 38.7456 23.0533 38.2471L25.9848 31.5754ZM27.7018 26.8927L28.1394 25.5519L25.4062 29.4027H27.6477C28.0145 29.4027 28.3563 29.5886 28.5571 29.8951C28.7573 30.2027 28.7902 30.59 28.6429 30.9263L28.3203 31.6592L31.4358 27.7978L28.9469 28.2957C28.5677 28.3672 28.1779 28.2397 27.9212 27.9513C27.6657 27.6629 27.5818 27.2601 27.7018 26.8927ZM74.3606 48.9567H78.6633C80.484 48.9567 81.9647 50.438 81.9647 52.2581V55.4749C81.9647 56.0753 81.4786 56.5608 80.8781 56.5608H76.5331V59.9579C78.4054 60.4409 79.7922 62.1447 79.7922 64.1655V77.2011C79.7922 79.598 77.8434 81.5468 75.4465 81.5468H73.274C70.8777 81.5468 68.929 79.598 68.929 77.2011H31.9934C31.9934 79.598 30.0446 81.5468 27.6484 81.5468H25.4759C23.079 81.5468 21.1302 79.598 21.1302 77.2011V64.1655C21.1302 62.1447 22.5164 60.4409 24.3893 59.9579V56.5614H20.0866C19.4861 56.5614 19 56.0753 19 55.4749V52.577C19 50.581 20.6242 48.9567 22.6196 48.9567H26.9391C28.4732 41.5547 35.043 35.9739 42.8938 35.9739H58.0709C64.1048 35.9739 69.3716 39.2784 72.1875 44.1654V37.914C72.1875 32.023 67.3949 27.2305 61.504 27.2305H53.622C53.1024 30.308 50.4258 32.662 47.2021 32.662H43.9431C43.3426 32.662 42.8571 32.1759 42.8571 31.5755V30.4889H39.5981C38.9976 30.4889 38.5115 30.0034 38.5115 29.403C38.5115 28.8025 38.9976 28.3164 39.5981 28.3164H42.8571V23.9714H39.5981C38.9976 23.9714 38.5115 23.4853 38.5115 22.8848C38.5115 22.2844 38.9976 21.7983 39.5981 21.7983H42.8571V20.7123C42.8571 20.1119 43.3426 19.6258 43.9431 19.6258H47.2021C50.4258 19.6258 53.1024 21.9798 53.622 25.0573H61.504C68.5927 25.0573 74.3606 30.8252 74.3606 37.914V48.9567ZM45.0293 30.4893H47.2019C49.5981 30.4893 51.5475 28.5406 51.5475 26.1443C51.5475 23.7481 49.5981 21.7987 47.2019 21.7987H45.0293V30.4893ZM42.8925 38.1469H58.0696C65.821 38.1469 72.1296 44.4263 72.1862 52.1647V53.3028H28.7703V52.2691C28.7703 44.4829 35.1057 38.1469 42.8925 38.1469ZM74.3591 55.475C74.3591 54.8745 74.8446 54.3885 75.4451 54.3885H79.7901V52.2582C79.7901 51.6354 79.2841 51.1294 78.6618 51.1294H74.3628L74.3616 52.2197C74.3616 52.2281 74.3622 52.2363 74.3628 52.2445C74.3635 52.2528 74.3641 52.261 74.3641 52.2694V54.3891C74.3641 54.9895 73.878 55.475 73.2775 55.475H27.6463C27.3566 55.475 27.0787 55.3594 26.8755 55.1536C26.6716 54.9479 26.5578 54.6688 26.5603 54.3791L26.5877 51.1294H22.6181C21.8206 51.1294 21.171 51.779 21.171 52.5765V54.3885H25.4744C26.0749 54.3885 26.5603 54.8745 26.5603 55.475V60.9066C26.5603 61.5071 26.0749 61.9931 25.4744 61.9931C24.2766 61.9931 23.3013 62.9678 23.3013 64.1656V77.2013C23.3013 78.3991 24.2766 79.3744 25.4744 79.3744H27.6469C28.8447 79.3744 29.8194 78.3991 29.8194 77.2013H27.6469C27.0464 77.2013 26.5603 76.7158 26.5603 76.1153C26.5603 75.5149 27.0464 75.0288 27.6469 75.0288H72.186C72.7865 75.0288 73.2726 75.5149 73.2726 76.1153C73.2726 76.7158 72.7865 77.2013 72.186 77.2013H71.1C71.1 78.3991 72.0747 79.3744 73.2726 79.3744H75.4451C76.6429 79.3744 77.6182 78.3991 77.6182 77.2013V64.1656C77.6182 62.9678 76.6429 61.9931 75.4451 61.9931C74.8446 61.9931 74.3591 61.5071 74.3591 60.9066V55.475ZM46.1154 68.5104H55.8926C56.493 68.5104 56.9791 68.9965 56.9791 69.5969C56.9791 70.1974 56.493 70.6835 55.8926 70.6835H46.1154C45.5149 70.6835 45.0294 70.1974 45.0294 69.5969C45.0294 68.9965 45.5149 68.5104 46.1154 68.5104ZM65.6806 64.1658H73.2791C73.685 64.1658 74.0561 64.3908 74.2426 64.7501C74.4303 65.11 74.4017 65.5426 74.1692 65.8746L70.3694 71.3061C70.1655 71.597 69.8336 71.7698 69.4792 71.7698H61.8808C61.4755 71.7698 61.1038 71.5448 60.9173 71.1855C60.7296 70.8256 60.7582 70.393 60.9906 70.0611L64.7905 64.6295C64.9944 64.3386 65.3263 64.1658 65.6806 64.1658ZM63.966 69.5973H68.9139L71.1934 66.3383H66.2454L63.966 69.5973ZM37.4405 64.6295C37.2378 64.3386 36.9047 64.1658 36.5503 64.1658H28.9512C28.5466 64.1658 28.1749 64.3908 27.9884 64.7501C27.8007 65.1087 27.8293 65.5426 28.0617 65.8746L31.8604 71.3061C32.063 71.597 32.3962 71.7698 32.7505 71.7698H40.349C40.7542 71.7698 41.126 71.5448 41.3124 71.1855C41.5002 70.8269 41.4716 70.393 41.2391 70.0611L37.4405 64.6295ZM33.3157 69.5973L31.0369 66.3383H35.9848L38.2636 69.5973H33.3157ZM41.7709 51.1293C42.0084 51.1293 42.2483 51.0522 42.4485 50.8919L47.88 46.5469C48.3481 46.1708 48.4246 45.4877 48.0497 45.019C47.6743 44.5509 46.9924 44.4738 46.5224 44.8493L41.0909 49.1943C40.6228 49.5703 40.5464 50.2529 40.9212 50.7222C41.1363 50.9907 41.4514 51.1293 41.7709 51.1293ZM50.0429 50.9008C49.8446 51.0556 49.609 51.1295 49.3765 51.1295C49.0527 51.1295 48.7326 50.9853 48.5181 50.7106C48.1489 50.2363 48.2353 49.5544 48.7083 49.1864L58.4849 41.5817C58.9604 41.2119 59.6417 41.3008 60.0097 41.7719C60.3789 42.2462 60.2931 42.9281 59.8195 43.2961L50.0429 50.9008Z" fill="white"/>
</svg>
