<svg width="100" height="100" viewBox="0 0 100 100" fill="none" xmlns="http://www.w3.org/2000/svg">
<path fill-rule="evenodd" clip-rule="evenodd" d="M29.0911 24.4938C29.0911 22.6279 26.6654 19.3628 25.922 18.4065C25.5006 17.8645 24.5905 17.8645 24.1691 18.4065C23.4257 19.3628 21 22.6279 21 24.4938C21 26.7343 22.8153 28.5567 25.0456 28.5567C27.2758 28.5567 29.0911 26.7343 29.0911 24.4938ZM25.0463 26.3224C24.0425 26.3224 23.2252 25.5017 23.2252 24.4936C23.2252 23.9196 24.0629 22.4123 25.0463 20.9824C26.029 22.4117 26.8666 23.9183 26.8666 24.4936C26.8666 25.5023 26.05 26.3224 25.0463 26.3224ZM70.9802 42.5707V33.9029C70.9802 31.7296 69.5417 29.9078 67.5781 29.2916V25.3501C67.5781 23.1327 65.7813 21.3288 63.5739 21.3288H57.0562C54.8489 21.3288 53.052 23.1327 53.052 25.3501V29.0499H52.4124C51.4455 29.0499 50.5112 29.3363 49.7105 29.8797L29.1358 43.8146C26.7801 45.4101 25.3741 48.0667 25.3741 50.9195V74.2593C25.3741 78.3363 28.6762 81.6526 32.7358 81.6526H63.6185C67.678 81.6526 70.9808 78.3363 70.9808 74.2593V69.7778C76.0002 69.0708 79.879 64.7407 79.879 59.5075C79.879 54.7312 73.1175 45.4012 70.9802 42.5707ZM55.2776 25.3501C55.2776 24.365 56.0758 23.5628 57.0566 23.5628H63.5743C64.5552 23.5628 65.3533 24.365 65.3533 25.3501V29.0499H55.2776V25.3501ZM32.7349 79.4178H63.6182C66.4513 79.4178 68.7554 77.1032 68.7554 74.2593V69.85C63.4216 69.4441 59.2022 64.9657 59.2022 59.5068C59.2022 54.1597 67.695 43.0789 68.6637 41.833C68.6774 41.8158 68.6953 41.8046 68.7132 41.7933C68.728 41.784 68.7428 41.7747 68.7554 41.7621V33.9016C68.7554 32.4583 67.5849 31.2827 66.1483 31.2827H52.4121C51.8902 31.2827 51.3867 31.4381 50.9552 31.7302L30.3799 45.6658C28.6378 46.8458 27.5978 48.8095 27.5978 50.9189V74.2587C27.5978 77.1032 29.9019 79.4178 32.7349 79.4178ZM69.5413 67.6563C65.068 67.6563 61.4279 64.0006 61.4279 59.5076C61.4279 56.0226 66.6637 48.2445 69.5413 44.3651C72.4202 48.2439 77.6547 56.02 77.6547 59.5076C77.6547 64.0006 74.0139 67.6563 69.5413 67.6563ZM36.3613 55.0254C37.0672 55.0254 37.7571 54.8107 38.351 54.3971L54.4435 43.2095C55.9946 42.1305 56.4204 40.0294 55.4135 38.4268C54.9094 37.6259 54.1252 37.0711 53.2042 36.8665C52.2851 36.66 51.338 36.8301 50.5437 37.3434L34.0846 47.9774C33.2858 48.4933 32.7403 49.291 32.5474 50.2243C32.3539 51.1569 32.5373 52.1074 33.0624 52.8981L33.4303 53.453C33.9573 54.2469 34.7612 54.7825 35.6943 54.9615C35.917 55.0043 36.1398 55.0254 36.3613 55.0254ZM35.2827 52.2151L34.9148 51.659C34.7213 51.3688 34.6539 51.0211 34.7258 50.6797C34.7964 50.3371 34.9963 50.045 35.2878 49.8558L51.7476 39.2217C51.9582 39.0862 52.1976 39.0166 52.442 39.0166C52.5349 39.0166 52.6297 39.0261 52.7233 39.0472C53.06 39.122 53.3477 39.3259 53.5323 39.6193C53.9015 40.2068 53.7455 40.977 53.1771 41.3721L37.0853 52.5597C36.7982 52.7598 36.4532 52.8314 36.1121 52.7668C35.7696 52.701 35.4749 52.5054 35.2827 52.2151ZM39.1025 30.0797C39.1025 32.3201 37.2872 34.1425 35.0569 34.1425C32.8267 34.1425 31.012 32.3201 31.0114 30.0797C31.0114 28.2138 33.4371 24.9487 34.1805 23.9924C34.6018 23.4503 35.512 23.4503 35.9334 23.9924C36.6768 24.9487 39.1025 28.2138 39.1025 30.0797ZM36.8782 30.0791C36.8782 29.5038 36.0405 27.9971 35.0572 26.5685C34.0738 27.9978 33.2368 29.505 33.2368 30.0791C33.2368 31.0871 34.054 31.9079 35.0572 31.9079C36.0609 31.9079 36.8782 31.0871 36.8782 30.0791ZM73.2035 58.7519C73.2035 60.9073 71.4569 62.662 69.3101 62.662C68.6952 62.662 68.1981 63.1619 68.1981 63.7787C68.1981 64.3955 68.6952 64.8961 69.3101 64.8961C72.6835 64.8961 75.428 62.1397 75.428 58.7519C75.428 58.135 74.9309 57.6345 74.3161 57.6345C73.7012 57.6345 73.2035 58.135 73.2035 58.7519ZM36.4966 71.5987H59.8566C60.4714 71.5987 60.9685 72.0985 60.9685 72.7154C60.9685 73.3322 60.4714 73.8327 59.8566 73.8327H36.4966C35.8817 73.8327 35.3846 73.3322 35.3846 72.7154C35.3846 72.0985 35.8817 71.5987 36.4966 71.5987Z" fill="white"/>
</svg>
