<svg width="100" height="100" viewBox="0 0 100 100" fill="none" xmlns="http://www.w3.org/2000/svg">
<path fill-rule="evenodd" clip-rule="evenodd" d="M90.8483 62.2558L88.6842 61.0186L91.7648 48.837L69.0412 35.8482L58.4168 43.7171L51.7696 39.9179C50.259 39.0536 48.4981 38.8241 46.812 39.2717C45.1266 39.7187 43.7179 40.789 42.8449 42.2854L39.7406 47.6092L24.5814 26.3462L24.9281 25.0633C25.3211 23.6133 25.1205 22.1021 24.3638 20.8057C23.6078 19.5086 22.3867 18.581 20.9257 18.1939C19.4646 17.8055 17.939 18.0048 16.6295 18.7533C15.3194 19.5025 14.3825 20.7115 13.9909 22.1573C13.9882 22.1688 13.9855 22.1796 13.9828 22.1903L6.92019 48.2863C5.78684 49.4502 5.08792 51.0307 5.08792 52.7714V60.9527H37.4936V65.2647H34.7448V67.8523H39.7583V70.4398H34.7448V73.0273H42.3717V65.2647H40.107V58.3651H18.1545V52.7714C18.1545 52.1602 18.0668 51.5699 17.9063 51.0091L23.7009 29.5981L38.302 50.0769L36.9653 52.3689L43.2419 55.9567C41.8142 59.6495 43.2671 63.9387 46.8337 65.9776C48.1343 66.7207 49.5546 67.0735 50.9579 67.0735C53.4041 67.0735 55.7932 65.9964 57.3922 64.0457L68.7407 70.5327C67.313 74.2262 68.7659 78.5147 72.3332 80.5536C73.6331 81.2961 75.0534 81.6495 76.4566 81.6495C78.9028 81.6495 81.2919 80.5725 82.891 78.6217L87.3598 81.1756L93.2401 71.0927C95.0411 68.0031 93.9682 64.039 90.8483 62.2558ZM7.7001 58.365V52.7712C7.7001 50.6307 9.45894 48.89 11.6203 48.89C13.7816 48.89 15.5404 50.6307 15.5404 52.7712V58.365H7.7001ZM11.6206 46.3027C13.3122 46.3027 14.8555 46.9428 16.0167 47.9909L21.1709 28.9473C20.6229 29.1203 20.047 29.2152 19.4576 29.2152C18.9742 29.2152 18.4826 29.1533 17.9938 29.0234C16.9339 28.7427 16.0011 28.1759 15.2797 27.391L10.114 46.4784C10.5981 46.3646 11.1019 46.3027 11.6206 46.3027ZM22.4049 24.3899C21.9684 25.9981 20.2945 26.9546 18.671 26.5245C17.8843 26.3158 17.2269 25.8163 16.8197 25.1176C16.4158 24.4243 16.307 23.6179 16.5117 22.8438L16.5158 22.8276C16.7258 22.0481 17.2303 21.3972 17.936 20.994C18.4058 20.7254 18.9266 20.5881 19.4555 20.5881C19.72 20.5881 19.9865 20.6231 20.2496 20.6924C21.0363 20.9011 21.6937 21.4006 22.1009 22.0993C22.5082 22.7973 22.6156 23.6111 22.4049 24.3899ZM86.3298 59.674L88.7502 50.1021L84.0964 47.4425L79.3053 55.6581L86.3298 59.674ZM69.2259 38.9424L81.8328 46.149L77.0418 54.3652L60.8784 45.1258L69.2259 38.9424ZM50.9617 64.4867C52.9204 64.4867 54.8274 63.4817 55.8751 61.6844C56.6311 60.388 56.8324 58.8768 56.4408 57.4309C56.0492 55.9844 55.1123 54.7754 53.8029 54.0269C52.9299 53.5281 51.9618 53.273 50.9807 53.273C50.4891 53.273 49.9935 53.3369 49.506 53.4668C48.045 53.8539 46.8239 54.7815 46.0679 56.0786C44.5069 58.7556 45.4363 62.1913 48.1402 63.7368C49.0294 64.245 50.0017 64.4867 50.9617 64.4867ZM81.3732 76.26C80.3255 78.0566 78.4185 79.0623 76.4598 79.0616C75.5005 79.0616 74.5276 78.8206 73.6383 78.3117C72.3288 77.5632 71.392 76.3543 71.0004 74.9084C70.6087 73.4618 70.8093 71.9506 71.566 70.6542C72.6137 68.8576 74.5208 67.8519 76.4788 67.8519C77.4388 67.8519 78.4117 68.0936 79.301 68.6025C82.0048 70.1473 82.9342 73.583 81.3732 76.26ZM86.4036 77.6412L90.9772 69.7986C92.0575 67.9455 91.4136 65.5666 89.5419 64.497L50.4633 42.1591C49.5563 41.6401 48.4998 41.5028 47.4888 41.7714C46.4779 42.0393 45.6321 42.6814 45.1086 43.5794L40.5351 51.4221L44.5484 53.7161C47.0646 50.6453 51.5429 49.7473 55.1096 51.7862C58.6762 53.8252 60.1298 58.1137 58.702 61.8065L70.0471 68.2921C72.5641 65.2206 77.0417 64.3227 80.6084 66.3622C84.1757 68.4005 85.6286 72.6897 84.2008 76.3825L86.4036 77.6412ZM13.6868 72.5957C13.6868 67.6024 17.7899 63.54 22.8332 63.54C27.8772 63.54 31.9803 67.6024 31.9803 72.5957C31.9803 77.589 27.8772 81.652 22.8332 81.652C17.7899 81.652 13.6868 77.589 13.6868 72.5957ZM16.3014 72.5949C16.3014 76.1619 19.2323 79.0637 22.8343 79.0637C26.437 79.0637 29.3679 76.1619 29.3679 72.5949C29.3679 69.028 26.437 66.1268 22.8343 66.1268C19.2323 66.1268 16.3014 69.028 16.3014 72.5949ZM18.9144 72.5957C18.9144 70.4558 20.6725 68.7144 22.8339 68.7144C24.9959 68.7144 26.754 70.4558 26.754 72.5957C26.754 74.7356 24.9959 76.477 22.8339 76.477C20.6725 76.477 18.9144 74.7356 18.9144 72.5957ZM21.5265 72.5956C21.5265 73.3092 22.1126 73.8894 22.8326 73.8894C23.5533 73.8894 24.1393 73.3092 24.1393 72.5956C24.1393 71.8821 23.5533 71.3019 22.8326 71.3019C22.1126 71.3019 21.5265 71.8821 21.5265 72.5956ZM10.9238 70.4403H5V73.0278H10.9238V70.4403ZM44.8973 31.801H42.2839V34.3885H44.8973V31.801ZM37.0571 31.8012H39.6706V34.3887H37.0571V31.8012ZM50.1241 31.8012H47.5106V34.3887H50.1241V31.8012ZM47.5106 24.9009H50.1241V27.4884H47.5106V24.9009ZM55.35 24.9009H52.7366V27.4884H55.35V24.9009ZM42.2839 24.9011H44.8973V27.4886H42.2839V24.9011ZM12.9278 51.9954H10.3143V54.5829H12.9278V51.9954ZM70.7814 59.7508L72.0881 57.5099L74.3514 58.8037L73.0447 61.0446L70.7814 59.7508ZM64.695 53.285L63.3883 55.5258L68.5186 58.458L69.8254 56.2171L64.695 53.285ZM49.1849 59.3557L50.4916 57.1148L52.7549 58.4086L51.4482 60.6495L49.1849 59.3557ZM75.9908 71.691L74.6841 73.9319L76.9467 75.2256L78.2535 72.9848L75.9908 71.691Z" fill="white"/>
</svg>
