<svg width="100" height="100" viewBox="0 0 100 100" fill="none" xmlns="http://www.w3.org/2000/svg">
<path fill-rule="evenodd" clip-rule="evenodd" d="M74.3502 20.1217C70.3221 20.1217 67.0567 22.734 67.0567 25.9565V76.3478C67.0669 78.1008 65.2985 79.5284 63.1073 79.5365C61.0521 79.5441 59.3298 78.2948 59.1387 76.6576C59.846 76.3885 60.4931 76.0279 61.0536 75.5903C62.6886 74.3841 63.4645 72.6053 63.1222 70.8472L59.4384 55.1304H60.4263C61.1586 55.1304 61.7524 54.6554 61.7524 54.0696V49.8261C61.7524 49.2402 61.1586 48.7652 60.4263 48.7652H56.3446L51.5137 20.7477C51.2357 19.1757 49.557 18.0054 47.5726 18H41.9274C41.1951 17.9987 40.6 18.4725 40.5983 19.0584C40.5983 19.0833 40.5993 19.1081 40.6013 19.133L40.8745 22.3156C40.9018 22.6319 41.1047 22.9219 41.4275 23.106L41.6635 23.2407C42.513 23.7286 42.7075 24.6751 42.0976 25.3547C41.996 25.468 41.8754 25.5694 41.7391 25.6563C41.397 25.8735 41.2105 26.2115 41.2405 26.5602L41.515 29.7428C41.5394 30.0244 41.703 30.2867 41.9698 30.4716L42.3982 30.7676C43.1877 31.3163 43.2717 32.2731 42.5858 32.9047C42.5538 32.9341 42.5203 32.9626 42.4857 32.9901L42.2735 33.1566C41.9523 33.4094 41.8134 33.7754 41.9049 34.1284L42.9472 38.1597H36.8339L37.5898 34.0711C37.6519 33.7361 37.5105 33.3976 37.2092 33.1598L36.9957 32.9922C36.2513 32.4062 36.2415 31.4484 36.974 30.8528C37.0091 30.8243 37.0456 30.7969 37.0832 30.7707L37.5115 30.4748C37.7791 30.2904 37.9429 30.0279 37.9664 29.7459L38.2422 26.5633C38.2722 26.2147 38.0857 25.8767 37.7436 25.6595C36.9256 25.14 36.789 24.1885 37.4383 23.534C37.5473 23.4241 37.6751 23.3268 37.8179 23.2449L38.0552 23.1091C38.3783 22.9255 38.5809 22.6352 38.6069 22.3188L38.8814 19.1362C38.9311 18.5517 38.3793 18.0455 37.6485 18.0056C37.6175 18.0038 37.5863 18.0031 37.5551 18.0032H31.9155C29.9306 18.0081 28.2518 19.1786 27.9743 20.7508L23.1421 48.7652H20.6437C19.9114 48.7652 19.3176 49.2402 19.3176 49.8261V54.0696C19.3176 54.6554 19.9114 55.1304 20.6437 55.1304H21.7643L18.0751 70.878C17.7439 72.6269 18.5213 74.3932 20.1491 75.5903C22.4628 77.4439 26.0565 77.8 28.8655 76.4539L29.2527 76.2682C31.0754 75.3986 32.3159 73.922 32.6342 72.2433L36.4109 55.1304H37.8828C38.6152 55.1304 39.2089 54.6554 39.2089 54.0696V49.8261C39.2089 49.2402 38.6152 48.7652 37.8828 48.7652H43.1593C42.4378 48.7773 41.8609 49.2487 41.8611 49.8261V54.0696C41.8611 54.6554 42.4549 55.1304 43.1872 55.1304H44.7931L48.5565 72.2104C48.8695 73.8993 50.113 75.3867 51.9447 76.2629L52.3292 76.4465C53.4392 76.9803 54.7101 77.2624 56.0051 77.2623C56.1198 77.2623 56.2334 77.2505 56.3469 77.2388C56.4173 77.2316 56.4876 77.2243 56.5581 77.2198C57.155 80.1054 60.5631 82.0575 64.17 81.5799C67.3689 81.1563 69.7134 78.9416 69.7089 76.3478V25.9565C69.7089 23.9059 71.7869 22.2435 74.3502 22.2435C76.9135 22.2435 78.9915 23.9059 78.9915 25.9565V80.5913C78.9915 81.1771 79.5853 81.6521 80.3176 81.6521C81.0499 81.6521 81.6437 81.1771 81.6437 80.5913V25.9565C81.6437 22.734 78.3784 20.1217 74.3502 20.1217ZM30.0244 71.899C29.8271 72.9601 29.0456 73.8945 27.8947 74.4451L27.5088 74.6307C25.7431 75.4805 23.4808 75.2577 22.0254 74.0908C21.005 73.383 20.5014 72.3104 20.6874 71.2402L24.4628 55.1309H33.7175L30.0244 71.899ZM21.9686 53.0087H36.5555V50.887H21.9686V53.0087ZM39.2746 46.6438H35.0895C34.3914 46.6425 33.8116 47.0744 33.7634 47.6315L33.6679 48.7656H25.8148L30.5887 21.0376C30.6801 20.5091 31.2479 20.1171 31.9148 20.1221H36.1384L36.0058 21.6858C34.0815 22.9749 33.8277 25.2678 35.439 26.8073C35.4768 26.8434 35.5155 26.8789 35.5549 26.9138L35.3626 29.1565L35.352 29.1639C33.462 30.4723 33.2487 32.7565 34.8746 34.2752L33.9888 39.0629C33.8819 39.6425 34.3825 40.1817 35.107 40.2672C35.1697 40.2746 35.233 40.2784 35.2963 40.2786H39.2746C41.4717 40.2786 43.2528 41.7035 43.2528 43.4612C43.2528 45.219 41.4717 46.6438 39.2746 46.6438ZM43.9333 26.9116L44.1349 29.1638C46.0081 30.4627 46.2352 32.7228 44.6454 34.2443L45.8787 39.0055C45.8966 39.0754 45.9055 39.1466 45.9055 39.218C45.9053 39.8038 45.3114 40.2787 44.5791 40.2786H44.5459C46.3655 42.1605 46.3557 44.7907 44.5221 46.6639C45.1621 46.7097 45.6668 47.1189 45.7156 47.6314L45.8124 48.7655H53.6628L48.8849 21.0376C48.7942 20.5131 48.234 20.1223 47.5721 20.1221H43.3485L43.4824 21.6837C43.5275 21.7139 43.5719 21.7448 43.6155 21.7763C45.4759 23.1242 45.6181 25.4233 43.9333 26.9116ZM44.5125 53.0087V50.887H59.0994V53.0087H44.5125ZM53.3081 74.4461L53.6914 74.6297C55.4587 75.4826 57.7255 75.2602 59.1827 74.0908C60.2089 73.3735 60.7085 72.2878 60.5088 71.2094L56.7387 55.1309H47.4853L51.1718 71.8714C51.3634 72.9432 52.148 73.8888 53.3081 74.4461Z" fill="white"/>
</svg>
