<svg width="37" height="64" viewBox="0 0 37 64" fill="none" xmlns="http://www.w3.org/2000/svg">
<path d="M36.2778 59.1111C36.2778 56.4109 28.3182 54.2222 18.5 54.2222C8.68178 54.2222 0.722221 56.4109 0.722221 59.1111C0.722221 61.8112 8.68178 63.9999 18.5 63.9999C28.3182 63.9999 36.2778 61.8112 36.2778 59.1111Z" fill="#ADABAC"/>
<path d="M16.8069 22.2222H21.0397V57.3594C21.0397 58.5722 20.0921 59.5555 18.9233 59.5555C17.7546 59.5555 16.8069 58.5722 16.8069 57.3594V22.2222Z" fill="#494342"/>
<path d="M31.1982 13.3333C31.1982 20.6972 25.513 26.6667 18.4998 26.6667C11.4866 26.6667 5.80139 20.6972 5.80139 13.3333C5.80139 5.96951 11.4866 0 18.4998 0C25.513 0 31.1982 5.96951 31.1982 13.3333Z" fill="#C79DF1"/>
<path d="M26.9659 13.3332C26.9659 18.2426 23.1759 22.2221 18.5003 22.2221C13.8247 22.2221 10.0347 18.2426 10.0347 13.3332C10.0347 8.42383 13.8247 4.44434 18.5003 4.44434C23.1759 4.44434 26.9659 8.42383 26.9659 13.3332Z" fill="#8F25F8"/>
</svg>
