<svg width="100" height="100" viewBox="0 0 100 100" fill="none" xmlns="http://www.w3.org/2000/svg">
<path fill-rule="evenodd" clip-rule="evenodd" d="M20.1217 74.226H21.1826V78.4695C21.1826 80.2272 22.6075 81.6521 24.3652 81.6521H30.7304C32.4881 81.6521 33.913 80.2272 33.913 78.4695V74.226H59.3739V78.4695C59.3739 80.2272 60.7988 81.6521 62.5565 81.6521H68.9217C70.6794 81.6521 72.1043 80.2272 72.1043 78.4695V74.226H73.1652C74.337 74.226 75.2869 73.2761 75.2869 72.1043V56.1912C75.2909 54.6537 74.6204 53.1918 73.4527 52.1917L77.1021 49.5947C79.9462 47.5748 81.6407 44.3065 81.6521 40.8181V25.4768C81.6528 25.0544 81.4028 24.6718 81.0156 24.5029L66.1635 18.0867C65.8953 17.9711 65.5914 17.9711 65.3232 18.0867L50.4626 24.5029C50.0755 24.6718 49.8254 25.0544 49.8261 25.4768V29.6693H33.7751C31.526 29.6701 29.5218 31.0893 28.7742 33.2105L22.5257 50.9653C19.9316 51.3471 18.0072 53.5692 18 56.1912V72.1043C18 73.2761 18.9499 74.226 20.1217 74.226ZM31.7908 78.4695C31.7908 79.0554 31.3159 79.5304 30.73 79.5304H24.3648C23.7789 79.5304 23.3039 79.0554 23.3039 78.4695V74.226H31.7908V78.4695ZM25.4256 72.1051H27.5474V69.9833H25.4256V72.1051ZM69.9831 78.4695C69.9831 79.0554 69.5081 79.5304 68.9222 79.5304H62.557C61.9711 79.5304 61.4962 79.0554 61.4962 78.4695V74.226H69.9831V78.4695ZM65.7389 72.1051H67.8606V69.9833H65.7389V72.1051ZM51.9471 26.1736L65.7384 20.2158L79.5297 26.1736V40.8137C79.5192 43.616 78.1566 46.2409 75.8708 47.8621L65.7384 55.0793L55.606 47.8653C53.3205 46.2443 51.9579 43.6199 51.9471 40.8179V26.1736ZM68.9218 58.3129C68.9218 57.727 68.4469 57.252 67.861 57.252H63.6175C61.8598 57.252 60.4349 58.6769 60.4349 60.4346C60.4349 61.0205 60.9099 61.4955 61.4958 61.4955H67.861C68.4469 61.4955 68.9218 61.0205 68.9218 60.4346V58.3129ZM49.8257 36.0349V38.1567H42.3996V36.0349H49.8257ZM47.7044 33.9132H49.8261V31.7914H47.7044V33.9132ZM30.776 33.9132C31.2254 32.6421 32.4269 31.7921 33.7751 31.7914H45.5826V33.9132H42.3999C41.2281 33.9132 40.2782 34.8631 40.2782 36.0349V38.1567C40.2782 39.3285 41.2281 40.2784 42.3999 40.2784H49.826V40.8184C49.8375 44.3068 51.5319 47.5752 54.3761 49.595L56.1912 50.8872H24.8022L30.776 33.9132ZM23.3035 53.0093C21.5458 53.0093 20.1209 54.4342 20.1209 56.1919V72.105H23.3035V69.9833C23.3035 68.8115 24.2534 67.8616 25.4252 67.8616H27.547C28.7188 67.8616 29.6687 68.8115 29.6687 69.9833V72.105H63.6165V69.9833C63.6165 68.8115 64.5664 67.8616 65.7382 67.8616H67.86C69.0318 67.8616 69.9817 68.8115 69.9817 69.9833V72.105H73.1644L73.1643 56.1919C73.1695 55.0832 72.5892 54.054 71.6377 53.4846L69.011 55.3549C70.2328 55.8289 71.0391 57.0032 71.0426 58.3137V60.4354C71.0426 62.1932 69.6177 63.6181 67.86 63.6181H61.4948C59.7371 63.6181 58.3122 62.1932 58.3122 60.4354C58.3188 57.9886 59.9983 55.8639 62.3774 55.2923L59.1715 53.0093H23.3035ZM65.1244 52.0365L56.8369 46.137C55.1138 44.9122 54.0869 42.9318 54.0787 40.8177V28.2655C54.078 27.8431 54.3281 27.4606 54.7152 27.2916L65.3239 22.7086C65.592 22.593 65.896 22.593 66.1641 22.7086L76.7728 27.2916C77.1599 27.4606 77.4099 27.8431 77.4093 28.2655V40.8177C77.3993 42.9334 76.369 44.9142 74.6426 46.137L66.355 52.0365C65.9867 52.2987 65.4927 52.2987 65.1244 52.0365ZM65.7387 24.8388L56.1909 28.9624V40.8177C56.2001 42.2474 56.899 43.5848 58.0675 44.4087L65.7387 49.8701L73.4098 44.4151C74.5798 43.5895 75.2788 42.2496 75.2865 40.8177V28.9624L65.7387 24.8388ZM35.2813 33.9128H37.0964C37.6823 33.9128 38.1573 34.3878 38.1573 34.9737C38.1573 35.5596 37.6823 36.0345 37.0964 36.0345H35.2813C34.8312 36.0347 34.4303 36.3187 34.2809 36.7432L30.2984 48.0564C30.1038 48.6092 29.498 48.8996 28.9452 48.7051C28.3924 48.5106 28.102 47.9047 28.2965 47.3519L32.279 36.0345C32.7306 34.7638 33.9326 33.9143 35.2813 33.9128ZM31.7909 63.6166H25.4256C23.6679 63.6166 22.243 62.1916 22.243 60.4339V58.3122C22.243 56.5545 23.6679 55.1296 25.4256 55.1296H29.6691C32.5972 55.1331 34.97 57.5059 34.9735 60.4339C34.9735 62.1916 33.5486 63.6166 31.7909 63.6166ZM25.4241 57.2509C24.8382 57.2509 24.3632 57.7259 24.3632 58.3118V60.4335C24.3632 61.0194 24.8382 61.4944 25.4241 61.4944H31.7893C32.3752 61.4944 32.8502 61.0194 32.8502 60.4335C32.8502 58.6758 31.4252 57.2509 29.6675 57.2509H25.4241ZM39.2166 69.9821H54.0688C55.2406 69.9821 56.1905 69.0322 56.1905 67.8604V63.6169C56.1905 62.4451 55.2406 61.4951 54.0688 61.4951H39.2166C38.0448 61.4951 37.0949 62.4451 37.0949 63.6169V67.8604C37.0949 69.0322 38.0448 69.9821 39.2166 69.9821ZM39.2167 63.6173H54.0689V67.8608H39.2167V63.6173ZM69.9032 34.5705H68.9698V32.434C68.9698 30.9187 67.715 29.686 66.1726 29.686C64.6302 29.686 63.3754 30.9187 63.3754 32.434V34.5705H62.4439C61.5871 34.5705 60.8899 35.2698 60.8899 36.1293V41.4295C60.8899 42.289 61.5871 42.9884 62.4439 42.9884H69.9032C70.7601 42.9884 71.4572 42.289 71.4572 41.4295V36.1293C71.4572 35.2698 70.7601 34.5705 69.9032 34.5705ZM64.4105 32.4346C64.4105 31.4923 65.2006 30.7258 66.1717 30.7258C67.1429 30.7258 67.9329 31.4923 67.9329 32.4346V34.571H64.4105V32.4346ZM69.903 41.9492C70.1886 41.9492 70.421 41.7161 70.421 41.4296V36.1294C70.421 35.8429 70.1886 35.6098 69.903 35.6098H62.4437C62.1581 35.6098 61.9257 35.8429 61.9257 36.1294V41.4296C61.9257 41.7161 62.1581 41.9492 62.4437 41.9492H69.903ZM65.2413 38.1213C65.2413 37.5824 65.6587 37.1456 66.1737 37.1456C66.6886 37.1456 67.1061 37.5824 67.1061 38.1213C67.1061 38.4662 66.9349 38.7691 66.6767 38.9426V40.0991C66.6767 40.3904 66.4511 40.6266 66.1727 40.6266C65.8944 40.6266 65.6687 40.3904 65.6687 40.0991V38.9414C65.4116 38.7677 65.2413 38.4654 65.2413 38.1213Z" fill="white"/>
</svg>
