<svg width="60" height="60" viewBox="0 0 60 60" fill="none" xmlns="http://www.w3.org/2000/svg">
<path d="M57.9215 45.8815C56.0703 48.0523 53.2934 49.108 50.5869 48.7758L42.4204 58.3246C40.6864 60.3411 37.6752 60.5783 35.6599 58.8109C33.6681 57.0672 33.4455 53.995 35.1796 51.9785L43.346 42.4297C42.643 39.7371 43.2992 36.8191 45.1387 34.6721C46.6853 32.8573 48.9231 31.7778 51.2899 31.7185C52.9888 31.6236 54.1253 33.6639 53.0005 35.1347L51.4422 37.4834C50.997 38.2425 51.1493 39.2745 51.864 39.9032C52.6022 40.5437 53.6566 40.4844 54.3128 39.9388L56.3515 38.0646C57.6051 36.7479 59.7258 37.5427 59.9485 39.2982C60.2062 41.7062 59.4915 44.043 57.9215 45.8815Z" fill="#8F25F8"/>
<path d="M45.8531 15.0052H45.033C44.7986 8.99126 41.1782 3.84323 36.0346 1.48273C36.0229 1.7081 35.9995 1.93348 35.9526 2.15885L34.0428 10.8298C33.8905 11.5297 33.1992 11.9804 32.5079 11.8144C31.8166 11.6602 31.3714 10.9603 31.5355 10.2605L33.4453 1.58948C33.6093 0.78288 33.0469 0 32.1916 0H27.2589C26.4387 0 25.806 0.771018 26.0052 1.58948L27.915 10.2605C28.0673 10.9603 27.6338 11.6602 26.9425 11.8144C26.2278 11.9567 25.56 11.506 25.4077 10.8298L23.4979 2.15885C23.451 1.93348 23.4158 1.7081 23.4158 1.48273C18.2723 3.84323 14.6518 8.99126 14.4175 15.0052H13.5973C12.8826 15.0052 12.3085 15.5864 12.3085 16.31C12.3085 17.0217 12.8826 17.6148 13.5973 17.6148H15.6829V24.7793C15.6829 28.6107 18.7175 32.1099 21.881 34.9924V38.2781C21.881 39.832 20.5804 40.9945 19.1041 41.0893C19.069 41.0893 19.4556 41.0419 14.8627 41.5401V49.7603H33.6913L40.6041 41.6943C40.5807 41.5045 40.5572 41.3029 40.5572 41.1131L40.4987 41.1012C40.4518 41.0893 40.4049 41.0893 40.3581 41.0893C38.8349 41.0893 37.5812 39.832 37.5812 38.2781V34.9924C40.7447 32.1099 43.7676 28.6107 43.7676 24.7793V17.6148H45.8649C46.5796 17.6148 47.1537 17.0336 47.1537 16.31C47.142 15.5864 46.5679 15.0052 45.8531 15.0052ZM38.1202 43.1889C32.4845 46.7237 26.9543 46.7237 21.3303 43.177C23.1581 42.323 24.4352 40.4369 24.4352 38.2662V37.2343C25.0445 37.7443 25.0796 37.7799 25.3725 38.029C26.1341 38.6695 27.0949 39.0254 28.0791 39.0254H31.3363C32.3205 39.0254 33.2812 38.6695 34.0428 38.029C35.3433 36.9377 34.8864 37.3173 34.9918 37.2343V38.2781C35.0036 40.4488 36.2807 42.323 38.1202 43.1889ZM41.1899 24.7675C41.1899 28.9073 35.6245 33.308 32.4142 36.0125C32.1213 36.2616 31.7346 36.4039 31.348 36.4039H28.0908C27.7041 36.4039 27.3292 36.2616 27.0246 36.0125C23.7791 33.2843 18.2488 28.8835 18.2488 24.7675V17.6029H41.1899V24.7675Z" fill="#8F25F8"/>
<path d="M58.1439 59.997H53.6096L51.5943 54.1491C51.3952 53.5679 51.114 53.0341 50.7742 52.5597L51.7349 51.4446C53.6096 51.4209 55.4374 50.899 57.0308 49.9619C57.3003 50.5787 57.5112 51.2193 57.687 51.8835L59.3859 58.3601C59.6085 59.1548 58.9992 59.997 58.1439 59.997Z" fill="#8F25F8"/>
<path d="M33.2111 59.9969H8.61798L10.27 55.0268C10.8324 53.4611 12.297 52.3579 14.2654 52.3579H31.9809C31.5591 53.4018 31.3833 54.5286 31.4654 55.6911C31.5825 57.2924 32.1918 58.787 33.2111 59.9969Z" fill="#8F25F8"/>
<path d="M50.8797 59.9969H44.4005L48.9934 54.6235C49.2394 55.1692 49.0285 54.6828 50.8797 59.9969Z" fill="#8F25F8"/>
<path d="M12.2855 49.9741V41.8369C7.18881 42.8808 3.088 46.7477 1.7523 51.8602L0.0416783 58.3486C-0.169221 59.2145 0.451759 59.9974 1.28364 59.9974H5.87655L7.83322 54.1495C8.57137 52.0737 10.2586 50.5435 12.2855 49.9741Z" fill="#8F25F8"/>
</svg>
