<svg width="40" height="40" viewBox="0 0 40 40" fill="none" xmlns="http://www.w3.org/2000/svg">
<circle cx="20" cy="20" r="20" fill="#8F25F8"/>
<path d="M25 10.4302H15C12 10.4302 10 12.4302 10 15.4302V21.4302C10 24.4302 12 26.4302 15 26.4302H19L23.45 29.3902C24.11 29.8302 25 29.3602 25 28.5602V26.4302C28 26.4302 30 24.4302 30 21.4302V15.4302C30 12.4302 28 10.4302 25 10.4302ZM23.5 19.2502H16.5C16.09 19.2502 15.75 18.9102 15.75 18.5002C15.75 18.0902 16.09 17.7502 16.5 17.7502H23.5C23.91 17.7502 24.25 18.0902 24.25 18.5002C24.25 18.9102 23.91 19.2502 23.5 19.2502Z" fill="white"/>
</svg>
