<svg width="100" height="100" viewBox="0 0 100 100" fill="none" xmlns="http://www.w3.org/2000/svg">
<path fill-rule="evenodd" clip-rule="evenodd" d="M81.6521 37.0956C81.6521 37.6815 81.1771 38.1565 80.5913 38.1565H79.5304V73.1652H80.5913C81.1771 73.1652 81.6521 73.6402 81.6521 74.2261V78.4695C81.6521 80.2273 80.2273 81.6521 78.4695 81.6521H31.7913C30.0336 81.6521 28.6087 80.2273 28.6087 78.4695H25.4261C23.6684 78.4695 22.2435 77.0447 22.2435 75.2869V68.9217H21.1826C20.5967 68.9217 20.1217 68.4467 20.1217 67.8609V64.6782H19.0609C18.475 64.6782 18 64.2032 18 63.6174V46.6435C18 46.0576 18.475 45.5826 19.0609 45.5826H20.1217V42.4C20.1217 41.8141 20.5967 41.3391 21.1826 41.3391H22.2435V36.0348C22.2435 34.277 23.6684 32.8522 25.4261 32.8522H28.6087C28.6087 31.0944 30.0336 29.6696 31.7913 29.6696H32.8522V26.487H34.9739V29.6696H60.4348V26.487H59.3739C58.788 26.487 58.313 26.0119 58.313 25.4261V19.0609C58.313 18.475 58.788 18 59.3739 18H72.1043C72.6902 18 73.1652 18.475 73.1652 19.0609V25.4261C73.1652 26.0119 72.6902 26.487 72.1043 26.487H71.0435V29.6696H75.2869V26.487H77.4087V29.6696H78.4695C80.2273 29.6696 81.6521 31.0944 81.6521 32.8522V37.0956ZM62.5569 20.1221H60.4352V24.3656H71.0439V20.1221H68.9221V22.2439H66.8004V20.1221H64.6787V22.2439H62.5569V20.1221ZM68.9229 26.4862V29.6688H62.5577V26.4862H68.9229ZM24.3647 43.4606H22.2429V45.5823H24.3647V43.4606ZM20.122 62.5562V60.4345H24.3654V58.3127H20.122V47.7041H26.4872V62.5562H20.122ZM22.2429 64.678V66.7998H24.3647V64.678H22.2429ZM28.6089 76.3479H25.4263C24.8405 76.3479 24.3655 75.8729 24.3655 75.287V68.9218H25.4263C26.0122 68.9218 26.4872 68.4468 26.4872 67.8609V64.6783H27.5481C28.1339 64.6783 28.6089 64.2033 28.6089 63.6174V46.6435C28.6089 46.0577 28.1339 45.5827 27.5481 45.5827H26.4872V42.4C26.4872 41.8142 26.0122 41.3392 25.4263 41.3392H24.3655V36.0348C24.3655 35.449 24.8405 34.974 25.4263 34.974H28.6089V37.0957C28.6089 37.6816 29.0839 38.1566 29.6698 38.1566H30.7307V73.1652H29.6698C29.0839 73.1652 28.6089 73.6403 28.6089 74.2261V76.3479ZM78.4706 79.5303C79.0565 79.5303 79.5315 79.0553 79.5315 78.4694V75.2868H30.7315V78.4694C30.7315 79.0553 31.2065 79.5303 31.7924 79.5303H78.4706ZM32.8525 73.1653V38.1566H77.409V73.1653H32.8525ZM30.7315 32.8522V36.0348H79.5315V32.8522C79.5315 32.2663 79.0565 31.7913 78.4706 31.7913H31.7924C31.2065 31.7913 30.7315 32.2663 30.7315 32.8522ZM36.0347 41.3396H74.226V43.4613H36.0347V41.3396ZM74.226 46.6432H36.0347V48.7649H74.226V46.6432ZM36.0347 51.9483H74.226V54.0701H36.0347V51.9483ZM74.226 57.2523H36.0347V59.3741H74.226V57.2523ZM36.0347 62.5563H74.226V64.678H36.0347V62.5563ZM74.226 67.8611H36.0347V69.9828H74.226V67.8611Z" fill="white"/>
</svg>
