<svg width="24" height="24" viewBox="0 0 24 24" fill="none" xmlns="http://www.w3.org/2000/svg">
<path d="M21.8164 13.7725L19.8848 11.0445C19.5655 10.5948 18.9424 10.4859 18.4903 10.8062L15.7628 12.7374C15.3126 13.0562 15.2052 13.6803 15.5245 14.131C15.8438 14.5812 16.4669 14.6891 16.919 14.3693L17.8325 13.7225C17.6363 14.3869 17.3364 15.0188 16.918 15.59C15.7539 17.1794 13.9619 18.0905 12 18.0905C10.2192 18.0905 8.5405 17.3156 7.395 15.9645C7.0386 15.5446 6.4077 15.4928 5.9853 15.8488C5.5644 16.2062 5.5122 16.8371 5.8696 17.2585C7.396 19.0583 9.6303 20.0905 12 20.0905C14.5684 20.0905 17.0098 18.8498 18.5313 16.7717C19.0841 16.0171 19.4822 15.1831 19.7433 14.3061L20.1836 14.928C20.3789 15.2034 20.6875 15.3504 21.001 15.3504C21.2002 15.3504 21.4024 15.2908 21.5781 15.1663C22.0283 14.8472 22.1357 14.2231 21.8164 13.7725Z" fill="#8F25F8"/>
<path d="M8.47558 9.86907C8.15578 9.41797 7.53168 9.31097 7.08148 9.63037L6.16778 10.2772C6.36378 9.61257 6.66358 8.98087 7.08148 8.41017C8.24558 6.82127 10.0381 5.90967 12 5.90967C13.7813 5.90967 15.46 6.68457 16.6055 8.03567C16.9629 8.45607 17.5938 8.50877 18.0147 8.15137C18.4366 7.79397 18.4883 7.16307 18.1309 6.74167C16.6045 4.94187 14.3701 3.90967 12 3.90967C9.43208 3.90967 6.99018 5.15037 5.46828 7.22847C4.91578 7.98287 4.51788 8.81707 4.25688 9.69457L3.81638 9.07227C3.49658 8.62107 2.87298 8.51417 2.42238 8.83347C1.97178 9.15277 1.86478 9.77687 2.18358 10.2275L4.11478 12.9555C4.31008 13.2309 4.61868 13.3779 4.93218 13.3779C5.13188 13.3779 5.33358 13.3183 5.50888 13.1943L8.23688 11.2631C8.68748 10.9438 8.79438 10.3198 8.47558 9.86907Z" fill="#8F25F8"/>
</svg>
