<svg width="120" height="120" viewBox="0 0 120 120" fill="none" xmlns="http://www.w3.org/2000/svg">
<path d="M112.938 71.531C110.58 67.8621 108.221 64.3241 105.862 60.6552C105.338 59.869 105.338 59.3448 105.862 58.5586C108.221 55.0207 110.449 51.4828 112.807 47.9448C115.559 43.7517 114.118 39.6897 109.4 37.9862C105.469 36.5448 101.538 34.9724 97.6072 33.531C96.821 33.269 96.4279 32.7448 96.4279 31.8276C96.2968 27.5035 96.0348 23.1793 95.7727 18.9862C95.5106 14.4 91.9727 11.7793 87.5175 12.9586C83.3244 14.0069 79.1313 15.1862 75.0693 16.3655C74.152 16.6276 73.6279 16.3655 72.9727 15.7104C70.352 12.3034 67.6003 9.02759 64.9796 5.75173C62.0968 2.08276 57.6417 2.08276 54.6279 5.75173C52.0072 9.02759 49.2555 12.3034 46.7658 15.5793C46.1106 16.4965 45.4555 16.6276 44.4072 16.3655C40.3451 15.1862 36.2831 14.1379 33.4003 13.3517C27.7658 12.0414 24.3589 14.269 24.0969 18.9862C23.8348 23.3104 23.5727 27.6345 23.4417 32.0897C23.4417 33.0069 23.0486 33.4 22.2624 33.7931C18.2003 35.3655 14.1382 36.9379 10.0762 38.5104C5.88307 40.2138 4.57272 44.2759 7.06237 48.0759C9.42099 51.7448 11.7796 55.2828 14.1382 58.9517C14.6624 59.7379 14.6624 60.2621 14.1382 61.1793C11.6486 64.8483 9.28995 68.5173 6.93133 72.3172C4.70375 75.8552 6.14511 80.0483 10.0761 81.6207C14.1382 83.1931 18.3313 84.7655 22.3934 86.338C23.3106 86.6 23.5727 87.1242 23.5727 88.0414C23.7037 92.2345 24.2279 96.2965 24.2279 100.49C24.2279 104.683 27.8968 108.483 33.0072 106.91C37.0692 105.6 41.1313 104.683 45.1934 103.503C45.9796 103.241 46.5037 103.372 47.0278 104.159C49.7796 107.565 52.4003 110.841 55.152 114.248C58.1658 117.917 62.4899 117.917 65.3727 114.248C68.1244 110.841 70.7451 107.565 73.4968 104.159C74.0209 103.503 74.414 103.241 75.3313 103.503C79.5244 104.683 83.7175 105.731 87.9106 106.91C92.2347 108.09 95.9037 105.469 96.0347 101.014C96.2968 96.6897 96.5589 92.3655 96.6899 87.9103C96.6899 86.8621 97.214 86.469 98.0002 86.2069C101.931 84.7655 105.993 83.1931 109.924 81.6207C114.118 79.5241 115.428 75.331 112.938 71.531ZM81.621 50.0414L55.4141 76.2483C54.7589 76.9035 53.8417 77.4276 52.9244 77.5586C52.6624 77.5586 52.2693 77.6897 52.0072 77.6897C50.8279 77.6897 49.5176 77.1655 48.6003 76.2483L37.8555 65.5034C36.021 63.669 36.021 60.6552 37.8555 58.8207C39.69 56.9862 42.7038 56.9862 44.5383 58.8207L51.8762 66.1586L74.6762 43.3586C76.5107 41.5242 79.5244 41.5242 81.3589 43.3586C83.4555 45.1931 83.4555 48.2069 81.621 50.0414Z" fill="#209F00"/>
</svg>
