<svg width="100" height="100" viewBox="0 0 100 100" fill="none" xmlns="http://www.w3.org/2000/svg">
<path fill-rule="evenodd" clip-rule="evenodd" d="M41.6132 39.4764V39.5596H41.7046C43.8759 41.4702 46.7136 42.6395 49.8264 42.6395C52.9392 42.6395 55.7768 41.4702 57.9482 39.5596H58.0396V39.4764C60.5528 37.2199 62.1462 33.9562 62.1462 30.3198C62.1462 23.5264 56.6197 18 49.8264 18C43.0331 18 37.5066 23.5264 37.5066 30.3198C37.5066 33.9562 39.1 37.2199 41.6132 39.4764ZM47.7723 40.3786V36.4793H45.719V39.7225C44.9839 39.4002 44.2991 38.9905 43.6657 38.5131V35.4527C43.6657 33.7546 45.0475 32.3728 46.7456 32.3728H52.9055C54.6036 32.3728 55.9854 33.7546 55.9854 35.4527V38.5131C55.352 38.9905 54.6672 39.4012 53.9321 39.7225V36.4793H51.8789V40.3786C51.2156 40.5141 50.5288 40.5859 49.8256 40.5859C49.1223 40.5859 48.4355 40.5141 47.7723 40.3786ZM47.773 26.2133V28.2666C47.773 29.399 48.6939 30.3199 49.8263 30.3199C50.9587 30.3199 51.8796 29.399 51.8796 28.2666V26.2133C51.8796 25.0809 50.9587 24.16 49.8263 24.16C48.6939 24.16 47.773 25.0809 47.773 26.2133ZM49.8256 20.0529C55.4865 20.0529 60.0921 24.6584 60.0921 30.3194C60.0921 32.6201 59.3221 34.7391 58.0388 36.4526V35.4526C58.0388 32.77 55.9629 30.5863 53.3377 30.3635C53.7063 29.7475 53.9322 29.035 53.9322 28.2661V26.2128C53.9322 23.948 52.0904 22.1062 49.8256 22.1062C47.5608 22.1062 45.719 23.948 45.719 26.2128V28.2661C45.719 29.035 45.9449 29.7475 46.3134 30.3635C43.6883 30.5863 41.6124 32.77 41.6124 35.4526V36.4526C40.3291 34.7391 39.5591 32.6201 39.5591 30.3194C39.5591 24.6584 44.1647 20.0529 49.8256 20.0529ZM70.3601 63.1726H66.2535C65.9804 63.1726 65.7197 63.2804 65.5277 63.4735L64.4815 64.5196L61.1203 57.7971C60.2435 56.0467 58.4859 54.9595 56.5291 54.9595H43.1252C41.1695 54.9595 39.4108 56.0467 38.5341 57.7971L35.1728 64.5196L34.1267 63.4735C33.9347 63.2804 33.6739 63.1726 33.4008 63.1726H29.2942C28.7265 63.1726 28.2676 63.6316 28.2676 64.1993V68.3059C28.2676 68.8736 28.7265 69.3325 29.2942 69.3325H30.3209V72.4125C30.3209 74.0828 31.135 75.555 32.3742 76.4924V80.6257C32.3742 81.1934 32.8331 81.6523 33.4008 81.6523H39.5607C40.1284 81.6523 40.5873 81.1934 40.5873 80.6257V77.5457H59.067V80.6257C59.067 81.1934 59.5259 81.6523 60.0937 81.6523H66.2535C66.8213 81.6523 67.2802 81.1934 67.2802 80.6257V76.4924C68.5193 75.554 69.3335 74.0818 69.3335 72.4125V69.3325H70.3601C70.9279 69.3325 71.3868 68.8736 71.3868 68.3059V64.1993C71.3868 63.6316 70.9279 63.1726 70.3601 63.1726ZM67.2801 71.3855H61.1203V70.0724L66.1744 68.3877L67.2801 68.94V71.3855ZM35.4541 75.4918H64.2002C65.5369 75.4918 66.6662 74.6305 67.0912 73.4385H60.0936C59.5259 73.4385 59.067 72.9796 59.067 72.4119V69.332C59.067 68.8895 59.3493 68.4983 59.7692 68.3587L63.0083 67.2787H36.646L39.8851 68.3587C40.305 68.4983 40.5873 68.8895 40.5873 69.332V72.4119C40.5873 72.9796 40.1284 73.4385 39.5607 73.4385H32.563C32.9881 74.6305 34.1174 75.4918 35.4541 75.4918ZM33.4808 68.3877L38.535 70.0724V71.3855H32.3751V68.94L33.4808 68.3877ZM43.1246 57.0123C41.9512 57.0123 40.8958 57.6652 40.3701 58.7144L37.1146 65.2254H62.5385L59.2841 58.7144C58.7584 57.6652 57.703 57.0123 56.5296 57.0123H43.1246ZM30.3203 65.2258H32.9752L33.7205 65.9711L31.1046 67.2791H30.3203V65.2258ZM34.4268 79.5983H38.5334V77.545H35.4535C35.1024 77.545 34.7584 77.5091 34.4268 77.4414V79.5983ZM65.2268 79.5983H61.1203V77.545H64.2002C64.5513 77.545 64.8952 77.5091 65.2268 77.4414V79.5983ZM68.5489 67.2791H69.3333V65.2258H66.6783L65.933 65.9711L68.5489 67.2791ZM42.6397 71.3857H57.0128V73.439H42.6397V71.3857ZM30.3198 34.4264C37.1131 34.4264 42.6395 39.9528 42.6395 46.7461C42.6395 53.5395 37.1131 59.0659 30.3198 59.0659C23.5264 59.0659 18 53.5395 18 46.7461C18 39.9528 23.5264 34.4264 30.3198 34.4264ZM28.2664 51.8797V56.8055C28.9296 56.941 29.6165 57.0129 30.3197 57.0129C31.023 57.0129 31.7098 56.941 32.373 56.8055V51.8797H34.4263V56.1495C35.1614 55.8281 35.8462 55.4175 36.4796 54.9401V50.853C36.4796 49.1549 35.0977 47.7731 33.3997 47.7731H27.2398C25.5417 47.7731 24.1598 49.1549 24.1598 50.853V54.9401C24.7933 55.4175 25.4781 55.8271 26.2131 56.1495V51.8797H28.2664ZM28.2672 43.6661V41.6128C28.2672 40.4805 29.1881 39.5595 30.3205 39.5595C31.4529 39.5595 32.3738 40.4805 32.3738 41.6128V43.6661C32.3738 44.7985 31.4529 45.7194 30.3205 45.7194C29.1881 45.7194 28.2672 44.7985 28.2672 43.6661ZM40.5862 46.7457C40.5862 41.0848 35.9807 36.4792 30.3198 36.4792C24.6588 36.4792 20.0533 41.0848 20.0533 46.7457C20.0533 49.0464 20.8233 51.1654 22.1066 52.8789V50.8523C22.1066 48.1697 24.1825 45.986 26.8076 45.7632C26.439 45.1472 26.2132 44.4347 26.2132 43.6658V41.6125C26.2132 39.3477 28.055 37.5059 30.3198 37.5059C32.5845 37.5059 34.4263 39.3477 34.4263 41.6125V43.6658C34.4263 44.4347 34.2005 45.1472 33.8319 45.7632C36.4571 45.986 38.5329 48.1697 38.5329 50.8523V52.8789C39.8162 51.1654 40.5862 49.0464 40.5862 46.7457ZM69.3333 34.4265C62.5399 34.4265 57.0135 39.9529 57.0135 46.7462C57.0135 53.5396 62.5399 59.066 69.3333 59.066C76.1266 59.066 81.653 53.5396 81.653 46.7462C81.653 39.9529 76.1266 34.4265 69.3333 34.4265ZM67.2791 56.8055V51.8797H65.2258V56.1495C64.4908 55.8271 63.806 55.4175 63.1726 54.9401V50.853C63.1726 49.1549 64.5544 47.7731 66.2525 47.7731H72.4124C74.1105 47.7731 75.4923 49.1549 75.4923 50.853V54.9401C74.8589 55.4175 74.1741 55.8281 73.439 56.1495V51.8797H71.3857V56.8055C70.7225 56.941 70.0357 57.0129 69.3324 57.0129C68.6292 57.0129 67.9424 56.941 67.2791 56.8055ZM67.2791 41.6128V43.6661C67.2791 44.7985 68.2 45.7194 69.3324 45.7194C70.4648 45.7194 71.3857 44.7985 71.3857 43.6661V41.6128C71.3857 40.4805 70.4648 39.5596 69.3324 39.5596C68.2 39.5596 67.2791 40.4805 67.2791 41.6128ZM77.5456 52.8789V50.8523C77.5456 48.1697 75.4698 45.986 72.8446 45.7632C73.2132 45.1472 73.4391 44.4347 73.4391 43.6658V41.6125C73.4391 39.3477 71.5973 37.5059 69.3325 37.5059C67.0677 37.5059 65.2259 39.3477 65.2259 41.6125V43.6658C65.2259 44.4347 65.4517 45.1472 65.8203 45.7632C63.1952 45.986 61.1193 48.1697 61.1193 50.8523V52.8789C59.836 51.1654 59.066 49.0464 59.066 46.7457C59.066 41.0848 63.6715 36.4792 69.3325 36.4792C74.9934 36.4792 79.5989 41.0848 79.5989 46.7457C79.5989 49.0464 78.829 51.1654 77.5456 52.8789Z" fill="white"/>
</svg>
