<svg width="40" height="40" viewBox="0 0 40 40" fill="none" xmlns="http://www.w3.org/2000/svg">
<path d="M37.5215 15.2676C37.4945 15.2366 37.4717 15.2064 37.4398 15.1762L36.0381 13.8235C37.2006 13.5598 38.4521 12.5859 38.4521 11.5867C38.4521 10.4225 36.8365 10.0095 35.4577 10.0095C34.016 10.0095 33.8486 10.9973 33.8315 11.6953L30.2149 8.20858C29.4802 7.4812 28.0866 6.90894 27.0449 6.90894H20.0012H19.9996H12.9543C11.9134 6.90894 10.5206 7.4812 9.78509 8.20858L6.16936 11.6953C6.15058 10.9973 5.98322 10.0095 4.54314 10.0095C3.16264 10.0095 1.54785 10.4225 1.54785 11.5867C1.54785 12.5859 2.80017 13.5598 3.96269 13.8235L2.56097 15.1762C2.52913 15.2064 2.50709 15.2366 2.47934 15.2676C0.979652 16.5493 0 18.9266 0 20.6515V25.7775C0 27.0216 0.490642 28.1506 1.28334 28.9923V30.9801C1.28334 32.1426 2.25646 33.0904 3.45327 33.0904H6.07711C7.27391 33.0904 8.24622 32.1443 8.24622 30.9801V30.4715H19.9996H20.0012H31.7538V30.9801C31.7538 32.1443 32.7253 33.0904 33.9237 33.0904H36.5467C37.7443 33.0904 38.7158 32.1426 38.7158 30.9801V28.9923C39.5094 28.1506 39.9992 27.0216 39.9992 25.7775V20.6515C40.0008 18.9266 39.0212 16.5493 37.5215 15.2676ZM11.1133 9.75803C11.6219 9.33434 12.511 9.01269 12.9543 9.01269H19.9996H20.0012H27.0466C27.4898 9.01269 28.3789 9.33434 28.8875 9.75803L33.6298 14.3541H20.0012H19.9996H6.37182L11.1133 9.75803ZM1.62704 19.876C1.62704 18.6139 2.61485 17.5894 3.83452 17.5894C5.05337 17.5894 9.03647 19.9274 9.03647 21.1895C9.03647 22.4516 5.05337 22.1594 3.83452 22.1594C2.61485 22.1594 1.62704 21.1389 1.62704 19.876ZM8.24704 28.2241H7.8266H7.40617L4.91214 28.2282C4.21985 28.0127 3.73166 27.7612 3.38633 27.491C3.21162 27.3547 3.07774 27.2126 2.97324 27.0714C2.86793 26.9285 2.79119 26.7881 2.74139 26.6477C2.43117 25.7709 3.07202 24.9652 3.07202 24.9652H7.32861L10.1663 28.2225L8.24704 28.2241ZM26.1208 28.2257H20.0012H19.9996H13.88C12.604 28.2257 11.5681 27.1898 11.5681 25.9146H19.9996H20.0012H28.4328C28.4328 27.1914 27.3968 28.2257 26.1208 28.2257ZM26.658 24.3374H20.0012H19.9996H13.3429C11.955 24.3374 10.8284 22.6263 10.8284 20.516H19.9996H20.0012H29.1724C29.1724 22.6271 28.0458 24.3374 26.658 24.3374ZM37.2602 26.6493C37.2096 26.7897 37.1329 26.9302 37.0276 27.0722C36.9239 27.2134 36.79 27.3555 36.6145 27.4918C36.27 27.762 35.781 28.0151 35.0887 28.229L32.5946 28.2249H32.1742H31.7538H29.8328L32.6722 24.9676H36.928C36.928 24.9676 37.5696 25.7709 37.2602 26.6493ZM36.1663 22.1594C34.9483 22.1594 30.9652 22.45 30.9652 21.1895C30.9652 19.9291 34.9483 17.5894 36.1663 17.5894C37.386 17.5894 38.3738 18.6139 38.3738 19.876C38.3738 21.1373 37.386 22.1594 36.1663 22.1594Z" fill="#8F25F8"/>
</svg>
