<svg width="35" height="26" viewBox="0 0 35 26" fill="none" xmlns="http://www.w3.org/2000/svg">
<path d="M26.5595 9.65635C26.8222 9.63821 27.0502 9.8442 27.069 10.1164C27.0899 10.4183 27.2262 10.6904 27.4529 10.8827C27.6794 11.0747 27.9655 11.159 28.2556 11.1199C28.7679 11.0513 29.1654 10.5778 29.1605 10.0422C29.1556 9.51509 28.79 9.06638 28.2912 8.97547C27.8562 8.89625 27.5302 8.5177 27.4983 8.05509L27.0568 1.66452C27.038 1.3923 27.2356 1.15696 27.4982 1.13882C27.7608 1.12068 27.9889 1.32667 28.0077 1.59883L28.4492 7.9894C28.4497 7.99771 28.4531 8.00287 28.452 8.00256C29.4057 8.17651 30.1045 9.03241 30.1138 10.0377C30.1233 11.0797 29.379 11.9662 28.3825 12.0997C28.3396 12.1055 28.2969 12.1099 28.2542 12.1128C27.7445 12.148 27.2505 11.9847 26.8513 11.646C26.4246 11.2842 26.1574 10.7506 26.1182 10.1821C26.0993 9.90976 26.2969 9.67449 26.5595 9.65635Z" fill="black"/>
<path d="M28.8458 2.54601C29.2973 2.00294 29.25 1.19237 28.736 0.703328C28.4748 0.454842 28.1315 0.32112 27.7696 0.32684C27.4389 0.332037 27.1215 0.456188 26.8756 0.676367L16.1537 10.5007C15.6796 10.9351 15.6723 11.6764 16.1377 12.1191L17.7804 13.6819C18.2451 14.124 18.989 14.0854 19.4056 13.5976L28.8458 2.54601Z" fill="black"/>
<path d="M17.4021 9.95748C17.265 9.8894 17.2386 9.70831 17.3518 9.60565L26.1845 1.59362C26.2412 1.54443 26.3137 1.51452 26.3889 1.50932C26.395 1.5089 26.4012 1.50859 26.4074 1.50854C26.5003 1.50704 26.5848 1.53952 26.6517 1.60249C26.7783 1.72167 26.7921 1.92522 26.6834 2.0582L18.9855 10.9766C18.8953 11.081 18.7298 11.0788 18.6451 10.9704C18.3138 10.5463 17.8885 10.1991 17.4021 9.95748Z" fill="black"/>
<path d="M19.1562 17.1565L18.8521 12.7552C18.7537 11.3315 17.5549 10.2504 16.1797 10.3454C14.8044 10.4404 13.7656 11.6761 13.864 13.0999L14.168 17.5011L19.1562 17.1565Z" fill="black"/>
<path d="M24.4367 15.3686L24.4747 15.2611C24.7641 14.2916 25.6258 13.603 26.6368 13.5331L29.2998 13.3492C30.3109 13.2793 31.2591 13.843 31.679 14.7634L31.7315 14.8647L33.028 14.7751C33.2836 14.7574 33.505 14.9499 33.5227 15.205L33.7297 18.2019C33.7333 18.2533 33.7336 18.3049 33.7309 18.3563C33.7009 18.7547 33.3827 19.0814 32.9717 19.1098L3.39882 21.1528C2.5515 21.2114 1.81726 20.5733 1.75883 19.7276L1.56685 16.9487L24.4367 15.3687L24.4367 15.3686Z" fill="black"/>
<path d="M3.1785 22.0724C2.31127 22.1324 1.51937 21.4696 1.45852 20.5889L0.864037 11.9839C0.841738 11.6611 0.945568 11.3426 1.15308 11.0975L4.34936 7.3223C4.56019 7.07327 4.86062 6.92054 5.1836 6.89823L11.3794 6.47019C12.0018 6.42719 12.5418 6.90479 12.5854 7.53691L13.5402 21.3567L3.1785 22.0724Z" fill="black"/>
<path d="M0.943677 11.2155L3.87915 7.45823C4.07277 7.21038 4.34974 7.05928 4.64824 7.03866L7.33521 6.85303C7.03671 6.87365 6.75974 7.02475 6.56611 7.2726L3.63065 11.0298C3.44007 11.2738 3.34574 11.5916 3.36803 11.9143L3.96252 20.5194C4.02337 21.4002 4.75898 22.0668 5.56047 22.0114L2.87344 22.197C2.07195 22.2524 1.33634 21.5858 1.27549 20.705L0.681011 12.1C0.658767 11.7772 0.753107 11.4595 0.943677 11.2155Z" fill="black"/>
<path d="M10.6467 12.9412L10.3637 8.84572C10.3467 8.59924 10.1042 8.41522 9.82206 8.4347L5.57328 8.72823C5.43674 8.73767 5.30913 8.7945 5.21902 8.88601L2.6741 11.4707C2.5854 11.5608 2.54026 11.6771 2.54837 11.7945L2.66568 13.4926C2.68271 13.7391 2.92523 13.9231 3.20734 13.9036L10.1667 13.4228C10.4488 13.4033 10.6637 13.1876 10.6467 12.9412Z" fill="white"/>
<ellipse cx="3.21398" cy="3.32111" rx="3.21398" ry="3.32111" transform="matrix(-0.997622 0.0689211 0.0689211 0.997622 10.0685 18.2009)" fill="black"/>
<ellipse cx="3.21398" cy="3.32111" rx="3.21398" ry="3.32111" transform="matrix(-0.997622 0.0689211 0.0689211 0.997622 31.1649 16.7434)" fill="black"/>
<path d="M28.3605 22.7373C26.7467 22.8488 25.3481 21.631 25.2367 20.0172C25.1809 19.2103 25.4575 18.4573 25.9497 17.8919L30.3675 21.7387C29.8753 22.304 29.1674 22.6816 28.3605 22.7373Z" fill="black"/>
<circle cx="1.5" cy="1.5" r="1.5" transform="matrix(-0.997622 0.0689211 0.0689211 0.997622 29.8123 18.8562)" fill="#E1EFFB"/>
<circle cx="1" cy="1" r="1" transform="matrix(-0.997622 0.0689211 0.0689211 0.997622 17.0881 11.2112)" fill="black"/>
<path d="M7.35844 23.6931C5.74466 23.8046 4.34607 22.5868 4.23459 20.973C4.17884 20.1661 4.45544 19.4131 4.94766 18.8477L9.36543 22.6945C8.87322 23.2598 8.16533 23.6374 7.35844 23.6931Z" fill="black"/>
<circle cx="1.5" cy="1.5" r="1.5" transform="matrix(-0.997622 0.0689211 0.0689211 0.997622 8.2019 19.8533)" fill="#E1EFFB"/>
<path d="M15.0053 19.7699L19.5499 19.456L22.7593 19.2342L24.0136 19.1476C24.2809 19.1291 24.4816 18.8827 24.4619 18.5971L24.3955 17.6359C24.3757 17.3504 24.1431 17.1339 23.8758 17.1523L14.8675 17.7747C14.6002 17.7931 14.3995 18.0396 14.4192 18.3252L14.4856 19.2863C14.5053 19.5719 14.738 19.7884 15.0053 19.7699Z" fill="black"/>
<path d="M10.5005 15.0716L11.618 14.9944C11.8604 14.9777 12.0723 15.1875 12.0913 15.4629C12.1104 15.7384 11.9293 15.9753 11.6869 15.9921L10.5694 16.0693C10.327 16.086 10.1151 15.8762 10.0961 15.6008C10.0771 15.3253 10.2581 15.0884 10.5005 15.0716Z" fill="black"/>
</svg>
