<svg width="28" height="20" viewBox="0 0 28 20" fill="none" xmlns="http://www.w3.org/2000/svg">
<path d="M22.2424 7.89716C22.4677 7.89716 22.6504 8.08652 22.6504 8.32003C22.6504 8.5791 22.7507 8.81952 22.933 8.99708C23.115 9.17442 23.3544 9.26328 23.6043 9.24699C24.0459 9.21863 24.4133 8.83777 24.4407 8.38008C24.4676 7.92968 24.1819 7.52495 23.7613 7.41789C23.3945 7.32458 23.1385 6.9821 23.1385 6.58518L23.1385 1.10207C23.1385 0.868502 23.3211 0.679199 23.5464 0.679199C23.7717 0.679199 23.9544 0.868558 23.9544 1.10207L23.9544 6.58518C23.9544 6.59231 23.9569 6.59692 23.956 6.59658C24.7601 6.80139 25.3064 7.57349 25.255 8.43249C25.2017 9.32283 24.5138 10.0359 23.6549 10.0912C23.618 10.0936 23.5812 10.0948 23.5446 10.0948C23.1073 10.0948 22.6951 9.92613 22.3742 9.61341C22.0312 9.27924 21.8345 8.80783 21.8345 8.32008C21.8345 8.0864 22.0171 7.89716 22.2424 7.89716Z" fill="black"/>
<path d="M24.6141 1.96017C25.0316 1.52306 25.039 0.828103 24.6289 0.380174C24.4206 0.152577 24.1353 0.0181386 23.8259 0.00167018C23.5433 -0.013399 23.2649 0.0738942 23.042 0.247404L13.3067 8.00412C12.8762 8.34705 12.8262 8.97968 13.1975 9.38515L14.5081 10.8166C14.8788 11.2215 15.5163 11.2324 15.9008 10.8405L24.6141 1.96017Z" fill="black"/>
<path d="M14.4048 7.6141C14.2917 7.54788 14.2799 7.39168 14.3825 7.3107L22.3976 0.990101C22.449 0.951446 22.5126 0.930176 22.5772 0.930176C22.5825 0.930176 22.5877 0.930281 22.593 0.930596C22.6725 0.934798 22.7427 0.967518 22.7961 1.02524C22.8972 1.13448 22.8969 1.30911 22.7963 1.41625L15.6967 8.57774C15.6136 8.66162 15.4724 8.64996 15.4064 8.55238C15.1486 8.17071 14.8059 7.84913 14.4048 7.6141Z" fill="black"/>
<path d="M15.4779 13.8648L15.4779 10.0885C15.4779 8.86693 14.5179 7.87305 13.338 7.87305C12.1581 7.87305 11.1981 8.86693 11.1981 10.0885L11.1981 13.8648L15.4779 13.8648Z" fill="black"/>
<path d="M20.0925 12.6495L20.1313 12.5599C20.4356 11.7491 21.2121 11.2119 22.0796 11.2119L24.3644 11.2119C25.2319 11.2119 26.0083 11.7492 26.3126 12.5599L26.3515 12.6495L27.4638 12.6495C27.6831 12.6495 27.8609 12.8269 27.8609 13.0458L27.8609 15.6172C27.8609 15.6613 27.8582 15.7053 27.8528 15.749C27.8037 16.0874 27.5127 16.3477 27.16 16.3477L1.78653 16.3477C1.05953 16.3477 0.470182 15.7595 0.470182 15.0339L0.470182 12.6495L20.0925 12.6495L20.0925 12.6495Z" fill="black"/>
<path d="M1.5442 17.1201C0.800117 17.1201 0.162989 16.5075 0.162989 15.7518L0.162989 8.36868C0.162989 8.09174 0.270439 7.82593 0.462093 7.62889L3.4142 4.59367C3.60892 4.39345 3.87448 4.28076 4.15159 4.28076L9.46758 4.28076C10.0016 4.28076 10.4345 4.72045 10.4345 5.26281L10.4345 17.1202L1.5442 17.1201Z" fill="black"/>
<path d="M0.276467 7.71728L3.00479 4.68205C3.18475 4.48183 3.43017 4.36914 3.68629 4.36914L5.99171 4.36914C5.73559 4.36914 5.49017 4.48183 5.31021 4.68205L2.58189 7.71728C2.40476 7.91432 2.30546 8.18013 2.30546 8.45707L2.30546 15.8402C2.30546 16.5959 2.89429 17.2085 3.58197 17.2085L1.2765 17.2085C0.588817 17.2085 -1.39435e-05 16.5959 -1.38774e-05 15.8402L-1.3232e-05 8.45713C3.7337e-05 8.18013 0.0993411 7.91438 0.276467 7.71728Z" fill="black"/>
<path d="M8.46011 9.76303L8.46011 6.24914C8.46011 6.03767 8.26387 5.86621 8.02183 5.86621L4.37637 5.86621C4.25922 5.86621 4.1469 5.90721 4.06455 5.98004L1.7389 8.03706C1.65785 8.10871 1.61243 8.20542 1.61243 8.30616L1.61243 9.76308C1.61243 9.97455 1.80867 10.146 2.05072 10.146L8.02183 10.146C8.26387 10.146 8.46011 9.97451 8.46011 9.76303Z" fill="white"/>
<ellipse cx="2.75104" cy="2.84274" rx="2.75104" ry="2.84274" transform="matrix(-1 -8.74228e-08 -8.74228e-08 1 7.65607 14.2207)" fill="black"/>
<ellipse cx="2.75104" cy="2.84274" rx="2.75104" ry="2.84274" transform="matrix(-1 -8.74228e-08 -8.74228e-08 1 25.7569 14.2207)" fill="black"/>
<path d="M23.0087 19.1734C21.6241 19.1734 20.5016 18.0509 20.5016 16.6663C20.5016 15.974 20.7823 15.3473 21.2359 14.8936L24.7814 18.439C24.3278 18.8927 23.701 19.1734 23.0087 19.1734Z" fill="black"/>
<circle cx="1.28394" cy="1.28394" r="1.28394" transform="matrix(-1 -8.74228e-08 -8.74228e-08 1 24.4772 15.9448)" fill="#E1EFFB"/>
<circle cx="0.85596" cy="0.85596" r="0.85596" transform="matrix(-1 -8.74228e-08 -8.74228e-08 1 14.0627 8.66602)" fill="black"/>
<path d="M5.01809 18.7505C3.63347 18.7505 2.51103 17.6281 2.51103 16.2435C2.51103 15.5512 2.79165 14.9244 3.24531 14.4707L6.79082 18.0162C6.33716 18.4699 5.7104 18.7505 5.01809 18.7505Z" fill="black"/>
<circle cx="1.28394" cy="1.28394" r="1.28394" transform="matrix(-1 -8.74228e-08 -8.74228e-08 1 5.96454 15.5215)" fill="#E1EFFB"/>
<path d="M11.7792 15.8516L15.6785 15.8516L18.4322 15.8516L19.5084 15.8516C19.7377 15.8516 19.9236 15.653 19.9236 15.4079L19.9236 14.5833C19.9236 14.3382 19.7377 14.1396 19.5084 14.1396L11.7793 14.1396C11.5499 14.1396 11.364 14.3382 11.364 14.5833L11.364 15.4079C11.364 15.653 11.5499 15.8516 11.7792 15.8516Z" fill="black"/>
<path d="M8.20974 11.5737L9.16857 11.5737C9.37655 11.5737 9.54511 11.7654 9.54511 12.0017C9.54511 12.238 9.37655 12.4297 9.16857 12.4297L8.20974 12.4297C8.00176 12.4297 7.83319 12.238 7.83319 12.0017C7.83319 11.7654 8.00176 11.5737 8.20974 11.5737Z" fill="black"/>
</svg>
