<svg width="100" height="100" viewBox="0 0 100 100" fill="none" xmlns="http://www.w3.org/2000/svg">
<path d="M18.0296 71.8609C18.0331 74.7889 20.4059 77.1617 23.3339 77.1652H76.3774C77.7846 77.1666 79.1346 76.6082 80.1297 75.6132C81.1247 74.6181 81.6831 73.2681 81.6817 71.8609C81.6908 69.8577 80.5619 68.0231 78.7696 67.1283C83.3033 57.2743 82.5061 45.7898 76.6544 36.6567C70.8028 27.5236 60.7026 21.9996 49.8557 22C26.6396 22 11.2623 46.2218 20.9438 67.1315C20.4399 67.3863 19.9786 67.7177 19.5763 68.1139C18.5856 69.1092 18.0294 70.4565 18.0296 71.8609ZM21.0743 69.6161C21.508 69.1895 22.0521 68.8923 22.6454 68.7578L22.6688 68.7525C23.1487 68.6459 23.6471 68.6543 24.1232 68.7769C24.4905 68.8717 24.8804 68.7633 25.1461 68.4926C25.4118 68.2219 25.5129 67.8301 25.4113 67.4646C25.3097 67.0992 25.0209 66.8157 24.6536 66.7209C24.1278 66.5904 23.5851 66.5407 23.0443 66.5735C21.3002 62.915 20.3264 58.9373 20.1831 54.8869H22.2731C22.859 54.8869 23.3339 54.412 23.3339 53.8261C23.3339 53.2402 22.859 52.7652 22.2731 52.7652H20.1778C20.3322 48.2724 21.5112 43.8742 23.6246 39.9064L25.4376 40.9535C25.766 41.146 26.1724 41.1478 26.5025 40.9582C26.8327 40.7686 27.0359 40.4167 27.035 40.036C27.0342 39.6553 26.8294 39.3042 26.4985 39.1161L24.695 38.0722C27.0856 34.2683 30.3022 31.0518 34.106 28.6612L35.1499 30.4647C35.338 30.7956 35.6891 31.0004 36.0698 31.0012C36.4505 31.002 36.8024 30.7988 36.992 30.4687C37.1816 30.1386 37.1798 29.7322 36.9873 29.4038L35.9402 27.5908C39.9071 25.4794 44.3037 24.302 48.7948 24.1483V26.2435C48.7948 26.8294 49.2697 27.3043 49.8557 27.3043C50.4416 27.3043 50.9165 26.8294 50.9165 26.2435V24.1483C55.4094 24.3027 59.8076 25.4816 63.7753 27.595L62.7282 29.4081C62.5357 29.7365 62.5339 30.1429 62.7235 30.473C62.9131 30.8031 63.2651 31.0063 63.6458 31.0054C64.0265 31.0046 64.3775 30.7999 64.5657 30.4689L65.6096 28.6654C69.4134 31.056 72.63 34.2726 75.0205 38.0764L73.2171 39.1203C72.8861 39.3085 72.6814 39.6595 72.6805 40.0402C72.6797 40.4209 72.8829 40.7728 73.213 40.9625C73.5431 41.1521 73.9495 41.1503 74.2779 40.9577L76.0909 39.9107C78.2023 43.8775 79.3797 48.2741 79.5335 52.7652H77.4383C76.8523 52.7652 76.3774 53.2402 76.3774 53.8261C76.3774 54.412 76.8523 54.8869 77.4383 54.8869H79.5292C79.3866 58.9369 78.4143 62.9145 76.6723 66.5735C76.1799 66.5405 75.6854 66.5812 75.2051 66.6944C74.8375 66.7867 74.547 67.0681 74.4431 67.4327C74.3392 67.7972 74.4377 68.1895 74.7014 68.4617C74.9652 68.7339 75.3541 68.8448 75.7218 68.7525C76.1729 68.655 76.64 68.6594 77.0892 68.7652C78.2147 69.0244 79.1114 69.8728 79.4324 70.9822C79.7533 72.0916 79.4481 73.2878 78.6349 74.1078C78.0357 74.7059 77.224 75.0423 76.3774 75.0435H59.5605C69.5419 70.4786 74.9939 59.5757 72.6579 48.8514C70.322 38.1272 60.8293 30.4796 49.8535 30.4796C38.8778 30.4796 29.3851 38.1272 27.0491 48.8514C24.7132 59.5757 30.1652 70.4786 40.1466 75.0435H23.3339C22.0475 75.0449 20.8867 74.2718 20.3922 73.0841C19.8978 71.8965 20.1669 70.528 21.0743 69.6161ZM49.8557 75.0435C38.1376 75.0435 28.6383 65.5441 28.6383 53.8261C28.6383 42.108 38.1376 32.6087 49.8557 32.6087C61.5737 32.6087 71.073 42.108 71.073 53.8261C71.0596 65.5385 61.5681 75.03 49.8557 75.0435Z" fill="white"/>
<path d="M53.1348 35.0337C43.7694 33.3873 34.6221 38.8915 31.6905 47.9373C28.7589 56.9832 32.9388 66.8065 41.4897 70.9664L41.5098 70.9855C41.5422 71.0005 41.5755 71.0132 41.6095 71.0237C46.7525 73.5258 52.7532 73.5578 57.9225 71.1107C58.021 71.0823 58.1149 71.0402 58.2015 70.9855L58.2217 70.9664C75.1266 62.6789 70.9108 38.0201 53.1348 35.0337ZM64.2283 44.8393L57.1205 47.6496C57.0754 47.6661 57.0265 47.6697 56.9794 47.6602C56.061 46.6038 54.9182 45.7658 53.6345 45.2075C53.5964 45.1761 53.5778 45.1268 53.5857 45.078L54.0695 37.4048C58.2821 38.4921 61.9178 41.1528 64.2283 44.8393ZM51.9711 36.9995L51.4703 44.9423C51.4029 45.8811 51.9274 46.7625 52.7847 47.151C53.7833 47.5846 54.6716 48.2372 55.3839 49.0605C56.0168 49.7613 57.0216 49.9893 57.8949 49.6302L65.2489 46.7192C65.8419 47.9939 66.2728 49.3379 66.5315 50.7197L58.9081 52.6908C57.9873 52.9047 57.3048 53.681 57.2107 54.6216C57.1116 55.7046 56.77 56.7514 56.2114 57.6844C55.731 58.5005 55.8191 59.531 56.431 60.2538L61.3863 66.2466C60.3653 67.2026 59.2305 68.0293 58.0074 68.7078L53.8318 62.1443C53.3299 61.3422 52.3794 60.9406 51.4544 61.1396C50.4012 61.3751 49.3091 61.3751 48.2559 61.1396C47.3341 60.9399 46.386 61.3385 45.8838 62.1368L41.7018 68.7068C40.4788 68.0282 39.344 67.2016 38.323 66.2456L43.2783 60.257C43.8923 59.5352 43.9826 58.5039 43.5032 57.6865C42.9437 56.7538 42.6018 55.7069 42.5028 54.6237C42.4112 53.6874 41.7354 52.9123 40.8203 52.694L33.182 50.7187C33.4401 49.3373 33.8702 47.9936 34.4625 46.7192L41.8249 49.6292C42.7007 49.9882 43.7077 49.7546 44.336 49.0468C45.0486 48.2284 45.9357 47.5802 46.9319 47.1499C47.7861 46.7608 48.3082 45.8816 48.241 44.9454L47.7403 37.0006C49.1438 36.805 50.5675 36.8047 51.9711 36.9995ZM45.6398 37.4048L46.1235 45.0791C46.1306 45.1258 46.1143 45.1729 46.0801 45.2053C44.806 45.7725 43.6672 46.6043 42.7394 47.6453C42.6947 47.6682 42.6418 47.6682 42.5972 47.6453L35.483 44.8319C37.7944 41.1486 41.4291 38.4908 45.6398 37.4048ZM32.9316 52.8457L40.3004 54.7553C40.337 54.7629 40.3685 54.7861 40.3864 54.8189C40.5142 56.2193 40.9558 57.5729 41.6785 58.7792C41.6906 58.8242 41.6772 58.8722 41.6435 58.9044L36.8431 64.7094C34.2815 61.6621 32.8786 57.808 32.8818 53.827C32.8818 53.496 32.9125 53.1725 32.9316 52.8457ZM43.6464 69.6075L47.6777 63.2688C47.7033 63.2254 47.7535 63.2029 47.8029 63.2125C49.154 63.5117 50.5542 63.5117 51.9053 63.2125C51.9581 63.2024 52.0113 63.2283 52.0358 63.2762L56.0671 69.6075C52.0791 71.1993 47.6322 71.1993 43.6443 69.6075H43.6464ZM62.8704 64.7063L58.0668 58.8969C58.0342 58.8645 58.0223 58.8167 58.036 58.7728C58.7584 57.5676 59.1997 56.2151 59.3271 54.8158C59.349 54.7793 59.3859 54.7544 59.4279 54.7479L66.7819 52.8457C66.801 53.1725 66.8317 53.496 66.8317 53.827C66.8336 57.8071 65.4299 61.6601 62.8683 64.7063H62.8704Z" fill="white"/>
<path d="M44.5519 53.8268C44.5519 56.7563 46.9268 59.1312 49.8563 59.1312C52.7858 59.1312 55.1606 56.7563 55.1606 53.8268C55.1606 50.8973 52.7858 48.5225 49.8563 48.5225C46.9282 48.526 44.5554 50.8988 44.5519 53.8268ZM49.8563 50.6442C51.614 50.6442 53.0389 52.0691 53.0389 53.8268C53.0389 55.5845 51.614 57.0094 49.8563 57.0094C48.0986 57.0094 46.6737 55.5845 46.6737 53.8268C46.6737 52.0691 48.0986 50.6442 49.8563 50.6442Z" fill="white"/>
</svg>
